<?xml version="1.0" encoding="utf-8"?>
<!-- Generator: Adobe Illustrator 17.0.1, SVG Export Plug-In . SVG Version: 6.00 Build 0)  -->
<!DOCTYPE svg PUBLIC "-//W3C//DTD SVG 1.1//EN" "http://www.w3.org/Graphics/SVG/1.1/DTD/svg11.dtd">
<svg version="1.1" id="Layer_1" xmlns="http://www.w3.org/2000/svg" xmlns:xlink="http://www.w3.org/1999/xlink" x="0px" y="0px"
	 width="371.5px" height="371.5px" viewBox="140.5 118.5 371.5 371.5" enable-background="new 140.5 118.5 371.5 371.5"
	 xml:space="preserve">
<g>
	<path fill="#748DFA" stroke="#748DFA" stroke-width="4" stroke-miterlimit="10" d="M299.75,132.833h-77.004v-0.696
		c-1.946,0.717-4.134,1.136-6.597,1.136c-1.514,0-2.926-0.157-4.245-0.44h-42.699c-13.107,0.014-23.732,10.639-23.746,23.746v22.322
		h-1.244c0.245,0.95,0.407,1.921,0.514,2.9c0.446,2.542,0.349,5.195-0.417,7.822h1.144v48.815
		c0.014,13.11,10.639,23.736,23.75,23.75h59.541c-0.115,19.456,8.492,31.265,15.906,37.813c5.023,4.475,10.936,7.836,17.348,9.861
		c1.836,0.496,3.794-0.017,5.152-1.347c1.354-1.33,1.906-3.278,1.449-5.121c-1.696-6.838-4.52-26.622,2.761-35.935
		c2.768-3.546,6.873-5.271,12.531-5.271h15.857c13.11-0.017,23.736-10.639,23.75-23.75v-81.86
		C323.486,143.472,312.861,132.847,299.75,132.833z M312.777,238.438c-0.007,7.19-5.836,13.02-13.027,13.027h-15.857
		c-9.051,0-16.109,3.159-20.982,9.39c-7.557,9.669-7.564,24.661-6.471,34.689c-7.697-4.929-17.77-15.261-16.919-35.331
		c0.094-2.297-0.747-4.534-2.328-6.199c-1.557-1.637-3.717-2.558-5.976-2.548h-62.013c-7.19-0.01-13.016-5.836-13.023-13.027v-81.86
		c0.007-7.19,5.833-13.016,13.023-13.023H299.75c7.19,0.007,13.016,5.833,13.027,13.023V238.438z"/>
	<path fill="#748DFA" d="M511.998,326.047c0-13.561-10.411-24.853-23.927-25.953c-13.517-1.096-25.611,8.368-27.8,21.751
		c-2.185,13.386,6.269,26.206,19.435,29.467v22.48c-2.898-0.897-5.874-1.5-8.89-1.802c-4.842-15.787-19.415-26.573-35.928-26.593
		h-26.141v-12.481c-0.008-6.913-5.613-12.514-12.522-12.522h-29.483v-12.102c0-3.461-2.804-6.261-6.261-6.261
		c-3.461,0-6.261,2.8-6.261,6.261v12.102h-28.953c-6.913,0.008-12.518,5.609-12.522,12.522v12.481h-26.145
		c-20.74,0.02-37.542,16.827-37.566,37.566v69.197c0.024,20.736,16.827,37.542,37.566,37.566h148.288
		c16.513-0.02,31.089-10.806,35.932-26.593c19.093-1.932,34.957-15.563,39.735-34.146c4.781-18.587-2.535-38.182-18.327-49.085
		v-28.59C503.833,348.417,511.981,338.006,511.998,326.047z M325.268,332.915h70.958v12.481h-70.958V332.915z M434.888,477.204
		H286.601c-13.826-0.016-25.028-11.222-25.044-25.044v-69.197c0.016-13.826,11.218-25.032,25.044-25.044h148.288
		c13.826,0.012,25.028,11.218,25.044,25.044v69.197C459.916,465.982,448.715,477.188,434.888,477.204z M499.476,417.557
		c-0.02,15.962-11.348,29.667-27.021,32.691V384.87c15.673,3.025,27.001,16.729,27.021,32.691V417.557z M472.455,326.043
		c0-7.463,6.049-13.513,13.508-13.513c7.464,0,13.513,6.049,13.513,13.513c0,7.459-6.049,13.509-13.508,13.509
		c-7.459-0.004-13.504-6.049-13.513-13.504V326.043z"/>
	<path fill="#748DFA" d="M303.978,392.517c-10.37,0.012-18.771,8.413-18.783,18.783v10.435c0,3.457,2.804,6.261,6.261,6.261H316.5
		c3.457,0,6.261-2.804,6.261-6.261V411.3C322.748,400.93,314.347,392.529,303.978,392.517z M310.239,415.474h-12.522V411.3
		c0-3.461,2.804-6.261,6.261-6.261s6.261,2.8,6.261,6.261V415.474z"/>
	<path fill="#748DFA" d="M417.512,392.517c-10.37,0.012-18.771,8.413-18.783,18.783v10.435c0,3.457,2.804,6.261,6.261,6.261h25.044
		c3.457,0,6.261-2.804,6.261-6.261V411.3C436.283,400.93,427.882,392.529,417.512,392.517z M423.773,415.474h-12.522V411.3
		c0-3.461,2.804-6.261,6.261-6.261c3.457,0,6.261,2.8,6.261,6.261V415.474z"/>
	<path fill="#748DFA" d="M385.791,435.464h-50.088c-3.461,0-6.261,2.8-6.261,6.261c0,17.287,14.014,31.305,31.305,31.305
		c17.287,0,31.305-14.018,31.305-31.305C392.052,438.264,389.247,435.464,385.791,435.464z M360.747,460.508
		c-7.961-0.008-15.049-5.026-17.711-12.522h35.418C375.792,455.482,368.703,460.496,360.747,460.508z"/>
</g>
</svg>
