<svg width="36" height="36" viewBox="0 0 36 36" fill="none" xmlns="http://www.w3.org/2000/svg">
<path d="M26.9997 8.99997C26.7184 8.71876 26.337 8.56079 25.9392 8.56079C25.5415 8.56079 25.16 8.71876 24.8787 8.99997L17.9997 15.879L11.1207 8.99997C10.8394 8.71876 10.458 8.56079 10.0602 8.56079C9.66248 8.56079 9.28102 8.71876 8.99973 8.99997C8.71852 9.28126 8.56055 9.66272 8.56055 10.0605C8.56055 10.4582 8.71852 10.8397 8.99973 11.121L15.8787 18L8.99973 24.879C8.71852 25.1603 8.56055 25.5417 8.56055 25.9395C8.56055 26.3372 8.71852 26.7187 8.99973 27C9.28102 27.2812 9.66248 27.4392 10.0602 27.4392C10.458 27.4392 10.8394 27.2812 11.1207 27L17.9997 20.121L24.8787 27C25.16 27.2812 25.5415 27.4392 25.9392 27.4392C26.337 27.4392 26.7184 27.2812 26.9997 27C27.2809 26.7187 27.4389 26.3372 27.4389 25.9395C27.4389 25.5417 27.2809 25.1603 26.9997 24.879L20.1207 18L26.9997 11.121C27.2809 10.8397 27.4389 10.4582 27.4389 10.0605C27.4389 9.66272 27.2809 9.28126 26.9997 8.99997Z" fill="white"/>
</svg>
