<?xml version="1.0"?>
<svg xmlns="http://www.w3.org/2000/svg" viewBox="0 0 512 512" width="512px" height="512px"><g><g id="outline"><path d="M144,104v24h16V112h16V96H152A8,8,0,0,0,144,104Z" data-original="#000000" class="active-path" data-old_color="#000000" fill="#748DFA"/><path d="M360,96H336v16h16v16h16V104A8,8,0,0,0,360,96Z" data-original="#000000" class="active-path" data-old_color="#000000" fill="#748DFA"/><path d="M152,408h24V392H160V376H144v24A8,8,0,0,0,152,408Z" data-original="#000000" class="active-path" data-old_color="#000000" fill="#748DFA"/><path d="M368,400V376H352v16H336v16h24A8,8,0,0,0,368,400Z" data-original="#000000" class="active-path" data-old_color="#000000" fill="#748DFA"/><path d="M208,242.144A16,16,0,1,0,229.856,248,16,16,0,0,0,208,242.144Z" data-original="#000000" class="active-path" data-old_color="#000000" fill="#748DFA"/><path d="M282.146,264A16,16,0,1,0,288,242.144,16,16,0,0,0,282.146,264Z" data-original="#000000" class="active-path" data-old_color="#000000" fill="#748DFA"/><path d="M256,343.289a51.2,51.2,0,0,0,28.438-8.633,8,8,0,0,0-8.876-13.312,35.174,35.174,0,0,1-39.124,0,8,8,0,1,0-8.876,13.312A51.2,51.2,0,0,0,256,343.289Z" data-original="#000000" class="active-path" data-old_color="#000000" fill="#748DFA"/><path d="M344,16H168a56.065,56.065,0,0,0-56,56V440a56.065,56.065,0,0,0,56,56H344a56.065,56.065,0,0,0,56-56V72A56.065,56.065,0,0,0,344,16ZM304,32a8,8,0,0,1,0,16H208a8,8,0,0,1,0-16Zm24,246.305A241.577,241.577,0,0,1,326.473,304H263.92a7.934,7.934,0,0,0-4.342-7.156l-8.844-4.422,12.422-24.844a8,8,0,0,0-14.312-7.156l-16,32a8,8,0,0,0,3.578,10.734l1.687.844H185.527A241.577,241.577,0,0,1,184,278.305V245.273a82.916,82.916,0,0,1,15.52-48.445l15.8-22.117a104.185,104.185,0,0,0,77.492,45.711L328,223.359ZM324.027,320a70.7,70.7,0,0,1-33.89,43.883h0a69.868,69.868,0,0,1-68.27,0A70.7,70.7,0,0,1,187.973,320ZM344,278.305V256a15.926,15.926,0,0,1,10.746,4.188A15.591,15.591,0,0,1,360,272a16.03,16.03,0,0,1-16,16h-.346C343.777,284.766,344,281.53,344,278.305Zm8-37.159A31.745,31.745,0,0,0,344,240V216a7.992,7.992,0,0,0-7.336-7.969l-42.519-3.547a88.022,88.022,0,0,1-70.989-48.062,8,8,0,0,0-13.664-1.07L186.5,187.531A98.719,98.719,0,0,0,168.2,240H168a32.171,32.171,0,0,0-8,1.129V208a96,96,0,0,1,192,0ZM156.7,260.7l.672-.609A15.827,15.827,0,0,1,168,256v22.305c0,3.225.223,6.461.346,9.695H168A15.988,15.988,0,0,1,156.7,260.7ZM171.675,320a86.089,86.089,0,0,0,168.65,0H384v88a40.047,40.047,0,0,1-40,40H168a40.047,40.047,0,0,1-40-40V320ZM344,480H168a40.061,40.061,0,0,1-39.2-32.076A55.794,55.794,0,0,0,168,464H344a55.794,55.794,0,0,0,39.2-16.076A40.061,40.061,0,0,1,344,480Zm40-176H344a31.816,31.816,0,0,0,24-52.913V208a112,112,0,0,0-224,0v43.064A31.662,31.662,0,0,0,136,272a32.034,32.034,0,0,0,32,32H128V72a40.047,40.047,0,0,1,40-40h17.474A23.731,23.731,0,0,0,184,40a24.027,24.027,0,0,0,24,24h96a24.027,24.027,0,0,0,24-24,23.731,23.731,0,0,0-1.474-8H344a40.047,40.047,0,0,1,40,40Z" data-original="#000000" class="active-path" data-old_color="#000000" fill="#748DFA"/></g></g> </svg>
