<svg width="20" height="20" viewBox="0 0 20 20" fill="none" xmlns="http://www.w3.org/2000/svg">
<path d="M15.6811 4.62667L13.4744 2.58667C13.0744 2.20667 12.5478 2 11.9944 2H5.80109C4.60109 2 3.62109 2.98 3.62109 4.18V15.82C3.62109 17.02 4.60109 18 5.80109 18H14.1944C15.3944 18 16.3744 17.02 16.3744 15.82V6.22667C16.3744 5.62 16.1211 5.04 15.6811 4.62667ZM7.82109 7.48C9.62309 5.67733 9.56109 5.73133 9.62776 5.68667C9.73606 5.6134 9.86368 5.57396 9.99443 5.57333H10.0011C10.1744 5.57333 10.3411 5.64667 10.4678 5.76667L12.1744 7.48C12.2991 7.60465 12.3691 7.77372 12.3691 7.95C12.3691 8.12628 12.2991 8.29535 12.1744 8.42C12.0498 8.54465 11.8807 8.61468 11.7044 8.61468C11.5281 8.61468 11.3591 8.54465 11.2344 8.42L10.6678 7.85333V10.2067C10.6678 10.58 10.3678 10.8733 10.0011 10.8733C9.62776 10.8733 9.33443 10.58 9.33443 10.2067V7.85333L8.76109 8.42667C8.63593 8.55035 8.46706 8.61971 8.29109 8.61971C8.11513 8.61971 7.94626 8.55035 7.82109 8.42667C7.56109 8.16667 7.56109 7.74 7.82109 7.48ZM12.5811 14.4267H7.41443C7.04776 14.4267 6.74776 14.1267 6.74776 13.76C6.74776 13.3933 7.04776 13.0933 7.41443 13.0933H12.5811C12.9478 13.0933 13.2478 13.3933 13.2478 13.76C13.2478 14.1267 12.9478 14.4267 12.5811 14.4267Z" fill="#82F7FF"/>
</svg>
