<svg width="598" height="878" viewBox="0 0 598 878" fill="none" xmlns="http://www.w3.org/2000/svg">
<g opacity="0.08">
<path d="M823.922 251.869V254.801L0 252.303V249.37L823.922 251.869Z" fill="url(#paint0_radial_78_87)"/>
<path d="M823.922 625.728V628.66L0 626.162V623.229L823.922 625.728Z" fill="url(#paint1_radial_78_87)"/>
<path d="M823.922 874.967V877.9L0 875.401V872.469L823.922 874.967Z" fill="url(#paint2_radial_78_87)"/>
<path d="M823.922 127.249V130.181L0 127.683V124.751L823.922 127.249Z" fill="url(#paint3_radial_78_87)"/>
<path d="M823.922 501.108V504.041L0 501.542V498.61L823.922 501.108Z" fill="url(#paint4_radial_78_87)"/>
<path d="M823.981 750.348V753.28L0.0594272 750.781V747.849L823.981 750.348Z" fill="url(#paint5_radial_78_87)"/>
<path d="M823.922 2.49861V5.43081L0 2.9322V0L823.922 2.49861Z" fill="url(#paint6_radial_78_87)"/>
<path d="M823.922 376.489V379.421L0 376.922V373.99L823.922 376.489Z" fill="url(#paint7_radial_78_87)"/>
<path d="M820.355 2.62941H823.922V877.9L820.355 877.899V2.62941Z" fill="url(#paint8_radial_78_87)"/>
<path d="M328.178 2.62941H331.744V877.899H328.178V2.62941Z" fill="url(#paint9_radial_78_87)"/>
<path d="M656.296 2.62941H659.863V877.899H656.296V2.62941Z" fill="url(#paint10_radial_78_87)"/>
<path d="M164.119 2.62941H167.685V877.899H164.119V2.62941Z" fill="url(#paint11_radial_78_87)"/>
<path d="M492.237 2.62941H495.804V877.899H492.237V2.62941Z" fill="url(#paint12_radial_78_87)"/>
<path d="M0.059434 2.62941H3.62594V877.899H0.059434V2.62941Z" fill="url(#paint13_radial_78_87)"/>
</g>
<defs>
<radialGradient id="paint0_radial_78_87" cx="0" cy="0" r="1" gradientUnits="userSpaceOnUse" gradientTransform="translate(411.991 438.95) rotate(86.2496) scale(476.192 446.326)">
<stop stop-color="white"/>
<stop offset="1" stop-color="white" stop-opacity="0"/>
</radialGradient>
<radialGradient id="paint1_radial_78_87" cx="0" cy="0" r="1" gradientUnits="userSpaceOnUse" gradientTransform="translate(411.991 438.95) rotate(86.2496) scale(476.192 446.326)">
<stop stop-color="white"/>
<stop offset="1" stop-color="white" stop-opacity="0"/>
</radialGradient>
<radialGradient id="paint2_radial_78_87" cx="0" cy="0" r="1" gradientUnits="userSpaceOnUse" gradientTransform="translate(411.991 438.95) rotate(86.2496) scale(476.192 446.326)">
<stop stop-color="white"/>
<stop offset="1" stop-color="white" stop-opacity="0"/>
</radialGradient>
<radialGradient id="paint3_radial_78_87" cx="0" cy="0" r="1" gradientUnits="userSpaceOnUse" gradientTransform="translate(411.991 438.95) rotate(86.2496) scale(476.192 446.326)">
<stop stop-color="white"/>
<stop offset="1" stop-color="white" stop-opacity="0"/>
</radialGradient>
<radialGradient id="paint4_radial_78_87" cx="0" cy="0" r="1" gradientUnits="userSpaceOnUse" gradientTransform="translate(411.991 438.95) rotate(86.2496) scale(476.192 446.326)">
<stop stop-color="white"/>
<stop offset="1" stop-color="white" stop-opacity="0"/>
</radialGradient>
<radialGradient id="paint5_radial_78_87" cx="0" cy="0" r="1" gradientUnits="userSpaceOnUse" gradientTransform="translate(411.991 438.95) rotate(86.2496) scale(476.192 446.326)">
<stop stop-color="white"/>
<stop offset="1" stop-color="white" stop-opacity="0"/>
</radialGradient>
<radialGradient id="paint6_radial_78_87" cx="0" cy="0" r="1" gradientUnits="userSpaceOnUse" gradientTransform="translate(411.991 438.95) rotate(86.2496) scale(476.192 446.326)">
<stop stop-color="white"/>
<stop offset="1" stop-color="white" stop-opacity="0"/>
</radialGradient>
<radialGradient id="paint7_radial_78_87" cx="0" cy="0" r="1" gradientUnits="userSpaceOnUse" gradientTransform="translate(411.991 438.95) rotate(86.2496) scale(476.192 446.326)">
<stop stop-color="white"/>
<stop offset="1" stop-color="white" stop-opacity="0"/>
</radialGradient>
<radialGradient id="paint8_radial_78_87" cx="0" cy="0" r="1" gradientUnits="userSpaceOnUse" gradientTransform="translate(411.991 438.95) rotate(86.2496) scale(476.192 446.326)">
<stop stop-color="white"/>
<stop offset="1" stop-color="white" stop-opacity="0"/>
</radialGradient>
<radialGradient id="paint9_radial_78_87" cx="0" cy="0" r="1" gradientUnits="userSpaceOnUse" gradientTransform="translate(411.991 438.95) rotate(86.2496) scale(476.192 446.326)">
<stop stop-color="white"/>
<stop offset="1" stop-color="white" stop-opacity="0"/>
</radialGradient>
<radialGradient id="paint10_radial_78_87" cx="0" cy="0" r="1" gradientUnits="userSpaceOnUse" gradientTransform="translate(411.991 438.95) rotate(86.2496) scale(476.192 446.326)">
<stop stop-color="white"/>
<stop offset="1" stop-color="white" stop-opacity="0"/>
</radialGradient>
<radialGradient id="paint11_radial_78_87" cx="0" cy="0" r="1" gradientUnits="userSpaceOnUse" gradientTransform="translate(411.991 438.95) rotate(86.2496) scale(476.192 446.326)">
<stop stop-color="white"/>
<stop offset="1" stop-color="white" stop-opacity="0"/>
</radialGradient>
<radialGradient id="paint12_radial_78_87" cx="0" cy="0" r="1" gradientUnits="userSpaceOnUse" gradientTransform="translate(411.991 438.95) rotate(86.2496) scale(476.192 446.326)">
<stop stop-color="white"/>
<stop offset="1" stop-color="white" stop-opacity="0"/>
</radialGradient>
<radialGradient id="paint13_radial_78_87" cx="0" cy="0" r="1" gradientUnits="userSpaceOnUse" gradientTransform="translate(411.991 438.95) rotate(86.2496) scale(476.192 446.326)">
<stop stop-color="white"/>
<stop offset="1" stop-color="white" stop-opacity="0"/>
</radialGradient>
</defs>
</svg>
