<svg width="217" height="144" viewBox="0 0 217 144" fill="none" xmlns="http://www.w3.org/2000/svg">
<g filter="url(#filter0_b_78_163)">
<rect width="217" height="107" rx="15" fill="white" fill-opacity="0.08"/>
<rect x="0.5" y="0.5" width="216" height="106" rx="14.5" stroke="white" stroke-opacity="0.08"/>
<path d="M49.125 38.355H41.16V31.56C47.91 31.56 49.98 30.57 51.42 26.52H58.35V60H49.125V38.355ZM83.7926 60.495H81.9926C67.9976 60.495 65.9276 53.43 65.9276 50.64V50.01H75.6926C75.8276 50.775 76.8176 53.025 82.9826 53.025C88.7876 53.025 90.6326 51.135 90.6326 48.885V48.615C90.6326 46.23 88.9226 44.61 82.9826 44.61C76.9976 44.61 75.7376 46.365 75.6026 47.22H66.4226V26.52H97.5176V34.125H75.6026V40.335C75.9626 39.975 78.9776 37.725 85.0076 37.725H85.4576C97.1126 37.725 99.8576 43.17 99.8576 48.12V48.66C99.8576 53.745 96.6626 60.495 83.7926 60.495ZM123.923 25.98H125.813C141.518 25.98 144.533 36.555 144.533 42.495V43.845C144.533 49.695 141.428 60.54 125.813 60.54H123.923C108.263 60.54 105.203 49.695 105.203 43.845V42.495C105.203 36.42 108.263 25.98 123.923 25.98ZM134.903 43.44V42.81C134.903 39.795 133.643 33.63 124.868 33.63C116.003 33.63 114.833 39.795 114.833 42.81V43.44C114.833 46.5 116.273 52.845 124.913 52.845C133.553 52.845 134.903 46.5 134.903 43.44ZM174.28 48.57H165.865V57.165H159.115V48.57H150.655V42.63H159.115V34.08H165.865V42.63H174.28V48.57Z" fill="#EBEBEB"/>
<g filter="url(#filter1_b_78_163)">
<path d="M109 106.322L126.678 106.322L109 124L91.3223 106.322L109 106.322Z" fill="white" fill-opacity="0.08"/>
<path d="M109 106.822L125.471 106.822L109 123.293L92.5294 106.822L109 106.822Z" stroke="white" stroke-opacity="0.08"/>
</g>
<path d="M31.268 85V72.4H36.344C37.64 72.4 38.66 72.67 39.404 73.21C40.16 73.75 40.538 74.548 40.538 75.604C40.538 76.648 40.172 77.434 39.44 77.962C38.72 78.49 37.778 78.754 36.614 78.754L36.92 78.394C38.324 78.394 39.386 78.67 40.106 79.222C40.826 79.774 41.186 80.584 41.186 81.652C41.186 82.72 40.814 83.548 40.07 84.136C39.326 84.712 38.198 85 36.686 85H31.268ZM32.186 84.226H36.704C37.868 84.226 38.75 84.016 39.35 83.596C39.962 83.164 40.268 82.498 40.268 81.598C40.268 80.686 39.962 80.026 39.35 79.618C38.75 79.198 37.868 78.988 36.704 78.988H32.186V84.226ZM32.186 78.232H36.326C37.37 78.232 38.174 78.022 38.738 77.602C39.314 77.17 39.602 76.54 39.602 75.712C39.602 74.872 39.314 74.242 38.738 73.822C38.174 73.39 37.37 73.174 36.326 73.174H32.186V78.232ZM48.332 85.072C47.384 85.072 46.544 84.868 45.812 84.46C45.092 84.052 44.522 83.488 44.102 82.768C43.694 82.048 43.49 81.226 43.49 80.302C43.49 79.366 43.682 78.544 44.066 77.836C44.462 77.116 45.002 76.552 45.686 76.144C46.37 75.736 47.138 75.532 47.99 75.532C48.842 75.532 49.604 75.73 50.276 76.126C50.96 76.522 51.494 77.08 51.878 77.8C52.274 78.508 52.472 79.33 52.472 80.266C52.472 80.302 52.466 80.344 52.454 80.392C52.454 80.428 52.454 80.47 52.454 80.518H44.156V79.816H51.968L51.608 80.158C51.62 79.426 51.464 78.772 51.14 78.196C50.828 77.608 50.402 77.152 49.862 76.828C49.322 76.492 48.698 76.324 47.99 76.324C47.294 76.324 46.67 76.492 46.118 76.828C45.578 77.152 45.152 77.608 44.84 78.196C44.528 78.772 44.372 79.432 44.372 80.176V80.338C44.372 81.106 44.54 81.79 44.876 82.39C45.224 82.978 45.698 83.44 46.298 83.776C46.898 84.1 47.582 84.262 48.35 84.262C48.95 84.262 49.508 84.154 50.024 83.938C50.552 83.722 50.996 83.392 51.356 82.948L51.878 83.542C51.47 84.046 50.954 84.43 50.33 84.694C49.718 84.946 49.052 85.072 48.332 85.072ZM53.3302 84.964L53.4202 84.19C53.4922 84.202 53.5642 84.22 53.6362 84.244C53.7202 84.256 53.7922 84.262 53.8522 84.262C54.2602 84.262 54.5842 84.112 54.8242 83.812C55.0642 83.5 55.2442 83.086 55.3642 82.57C55.4962 82.054 55.5862 81.472 55.6342 80.824C55.6942 80.176 55.7422 79.516 55.7782 78.844L55.9402 75.604H62.5282V85H61.6282V76.126L61.8802 76.414H56.5162L56.7502 76.108L56.6062 78.916C56.5582 79.732 56.4922 80.512 56.4082 81.256C56.3242 82 56.1982 82.66 56.0302 83.236C55.8622 83.812 55.6222 84.268 55.3102 84.604C54.9982 84.928 54.5962 85.09 54.1042 85.09C53.9842 85.09 53.8582 85.078 53.7262 85.054C53.6062 85.03 53.4742 85 53.3302 84.964ZM66.4167 85V75.604H67.3167V83.614L74.0127 75.604H74.8047V85H73.9047V76.99L67.2087 85H66.4167ZM85.6162 85L81.5842 80.302L82.3402 79.87L86.6962 85H85.6162ZM78.6862 85V75.604H79.5862V85H78.6862ZM79.2982 80.644V79.87H82.2502V80.644H79.2982ZM82.3942 80.392L81.5662 80.248L85.4182 75.604H86.4082L82.3942 80.392ZM92.3267 85.072C91.4267 85.072 90.6227 84.868 89.9147 84.46C89.2187 84.052 88.6607 83.488 88.2407 82.768C87.8327 82.048 87.6287 81.226 87.6287 80.302C87.6287 79.366 87.8327 78.544 88.2407 77.836C88.6607 77.116 89.2187 76.552 89.9147 76.144C90.6227 75.736 91.4267 75.532 92.3267 75.532C93.2267 75.532 94.0307 75.736 94.7387 76.144C95.4467 76.552 96.0047 77.116 96.4127 77.836C96.8207 78.544 97.0247 79.366 97.0247 80.302C97.0247 81.226 96.8207 82.048 96.4127 82.768C96.0047 83.488 95.4467 84.052 94.7387 84.46C94.0307 84.868 93.2267 85.072 92.3267 85.072ZM92.3267 84.262C93.0467 84.262 93.6947 84.1 94.2707 83.776C94.8467 83.44 95.2967 82.972 95.6207 82.372C95.9447 81.772 96.1067 81.082 96.1067 80.302C96.1067 79.51 95.9447 78.82 95.6207 78.232C95.2967 77.632 94.8467 77.17 94.2707 76.846C93.6947 76.51 93.0467 76.342 92.3267 76.342C91.6067 76.342 90.9587 76.51 90.3827 76.846C89.8187 77.17 89.3687 77.632 89.0327 78.232C88.7087 78.82 88.5467 79.51 88.5467 80.302C88.5467 81.082 88.7087 81.772 89.0327 82.372C89.3687 82.972 89.8187 83.44 90.3827 83.776C90.9587 84.1 91.6067 84.262 92.3267 84.262ZM104.06 85.09C103.304 85.09 102.632 84.958 102.044 84.694C101.468 84.43 100.976 84.04 100.568 83.524C100.172 83.008 99.8657 82.372 99.6497 81.616C99.4337 80.848 99.3257 79.966 99.3257 78.97C99.3257 77.998 99.4217 77.164 99.6137 76.468C99.8057 75.76 100.058 75.166 100.37 74.686C100.694 74.194 101.06 73.792 101.468 73.48C101.876 73.168 102.296 72.922 102.728 72.742C103.172 72.55 103.61 72.406 104.042 72.31L108.2 71.32L108.344 72.166L104.384 73.084C104.108 73.156 103.784 73.252 103.412 73.372C103.052 73.48 102.68 73.654 102.296 73.894C101.924 74.122 101.576 74.446 101.252 74.866C100.94 75.274 100.682 75.802 100.478 76.45C100.286 77.098 100.19 77.902 100.19 78.862C100.19 79.042 100.196 79.186 100.208 79.294C100.22 79.402 100.232 79.522 100.244 79.654C100.268 79.774 100.292 79.954 100.316 80.194L99.9017 79.978C99.9737 79.186 100.208 78.49 100.604 77.89C101 77.29 101.516 76.822 102.152 76.486C102.788 76.15 103.508 75.982 104.312 75.982C105.188 75.982 105.962 76.174 106.634 76.558C107.318 76.93 107.852 77.458 108.236 78.142C108.62 78.814 108.812 79.594 108.812 80.482C108.812 81.37 108.614 82.162 108.218 82.858C107.834 83.554 107.282 84.1 106.562 84.496C105.854 84.892 105.02 85.09 104.06 85.09ZM104.204 84.316C104.924 84.316 105.56 84.154 106.112 83.83C106.676 83.494 107.114 83.038 107.426 82.462C107.738 81.886 107.894 81.232 107.894 80.5C107.894 79.768 107.738 79.126 107.426 78.574C107.114 78.022 106.676 77.59 106.112 77.278C105.56 76.954 104.918 76.792 104.186 76.792C103.466 76.792 102.824 76.948 102.26 77.26C101.708 77.572 101.276 78.004 100.964 78.556C100.652 79.108 100.496 79.75 100.496 80.482C100.496 81.214 100.652 81.868 100.964 82.444C101.288 83.02 101.726 83.476 102.278 83.812C102.842 84.148 103.484 84.316 104.204 84.316ZM116.502 85.072C115.674 85.072 114.924 84.88 114.252 84.496C113.592 84.112 113.064 83.566 112.668 82.858C112.284 82.138 112.092 81.286 112.092 80.302C112.092 79.318 112.284 78.472 112.668 77.764C113.064 77.044 113.592 76.492 114.252 76.108C114.924 75.724 115.674 75.532 116.502 75.532C117.39 75.532 118.182 75.736 118.878 76.144C119.586 76.54 120.138 77.098 120.534 77.818C120.942 78.538 121.146 79.366 121.146 80.302C121.146 81.238 120.942 82.066 120.534 82.786C120.138 83.506 119.586 84.07 118.878 84.478C118.182 84.874 117.39 85.072 116.502 85.072ZM111.786 88.492V75.604H112.65V78.682L112.506 80.32L112.686 81.958V88.492H111.786ZM116.448 84.262C117.168 84.262 117.816 84.1 118.392 83.776C118.968 83.44 119.418 82.972 119.742 82.372C120.078 81.772 120.246 81.082 120.246 80.302C120.246 79.51 120.078 78.82 119.742 78.232C119.418 77.632 118.968 77.17 118.392 76.846C117.816 76.51 117.168 76.342 116.448 76.342C115.728 76.342 115.08 76.51 114.504 76.846C113.94 77.17 113.49 77.632 113.154 78.232C112.83 78.82 112.668 79.51 112.668 80.302C112.668 81.082 112.83 81.772 113.154 82.372C113.49 82.972 113.94 83.44 114.504 83.776C115.08 84.1 115.728 84.262 116.448 84.262ZM124.073 85V75.604H124.973V83.614L131.669 75.604H132.461V85H131.561V76.99L124.865 85H124.073ZM138.052 85V76.144L138.304 76.414H134.38V75.604H142.624V76.414H138.7L138.952 76.144V85H138.052ZM150.419 85V82.858L150.383 82.534V79.006C150.383 78.13 150.143 77.464 149.663 77.008C149.195 76.552 148.505 76.324 147.593 76.324C146.945 76.324 146.339 76.438 145.775 76.666C145.223 76.882 144.749 77.164 144.353 77.512L143.903 76.864C144.371 76.444 144.935 76.12 145.595 75.892C146.255 75.652 146.945 75.532 147.665 75.532C148.829 75.532 149.723 75.826 150.347 76.414C150.971 77.002 151.283 77.878 151.283 79.042V85H150.419ZM147.035 85.072C146.339 85.072 145.733 84.964 145.217 84.748C144.713 84.52 144.323 84.202 144.047 83.794C143.783 83.386 143.651 82.918 143.651 82.39C143.651 81.91 143.759 81.478 143.975 81.094C144.203 80.698 144.575 80.38 145.091 80.14C145.607 79.888 146.297 79.762 147.161 79.762H150.617V80.464H147.179C146.207 80.464 145.523 80.644 145.127 81.004C144.743 81.364 144.551 81.814 144.551 82.354C144.551 82.954 144.779 83.434 145.235 83.794C145.691 84.154 146.333 84.334 147.161 84.334C147.953 84.334 148.619 84.154 149.159 83.794C149.711 83.434 150.119 82.912 150.383 82.228L150.635 82.84C150.383 83.524 149.951 84.07 149.339 84.478C148.739 84.874 147.971 85.072 147.035 85.072ZM154.94 85V75.604H155.84V79.888H162.212V75.604H163.112V85H162.212V80.68H155.84V85H154.94ZM166.999 85V75.604H167.899V83.614L174.595 75.604H175.387V85H174.487V76.99L167.791 85H166.999ZM185.37 85V81.544L185.568 81.76H182.238C181.062 81.76 180.144 81.508 179.484 81.004C178.836 80.488 178.512 79.732 178.512 78.736C178.512 77.68 178.866 76.894 179.574 76.378C180.282 75.862 181.218 75.604 182.382 75.604H186.198V85H185.37ZM178.458 85L181.068 81.382H182.022L179.448 85H178.458ZM185.37 81.292V76.126L185.568 76.396H182.436C181.476 76.396 180.732 76.582 180.204 76.954C179.676 77.326 179.412 77.932 179.412 78.772C179.412 80.308 180.384 81.076 182.328 81.076H185.568L185.37 81.292Z" fill="white"/>
</g>
<g filter="url(#filter2_f_78_163)">
<circle cx="109" cy="125.591" r="7.59106" fill="#1190D8"/>
</g>
<defs>
<filter id="filter0_b_78_163" x="-20" y="-20" width="257" height="164" filterUnits="userSpaceOnUse" color-interpolation-filters="sRGB">
<feFlood flood-opacity="0" result="BackgroundImageFix"/>
<feGaussianBlur in="BackgroundImageFix" stdDeviation="10"/>
<feComposite in2="SourceAlpha" operator="in" result="effect1_backgroundBlur_78_163"/>
<feBlend mode="normal" in="SourceGraphic" in2="effect1_backgroundBlur_78_163" result="shape"/>
</filter>
<filter id="filter1_b_78_163" x="71.3223" y="86.3224" width="75.3555" height="57.6776" filterUnits="userSpaceOnUse" color-interpolation-filters="sRGB">
<feFlood flood-opacity="0" result="BackgroundImageFix"/>
<feGaussianBlur in="BackgroundImageFix" stdDeviation="10"/>
<feComposite in2="SourceAlpha" operator="in" result="effect1_backgroundBlur_78_163"/>
<feBlend mode="normal" in="SourceGraphic" in2="effect1_backgroundBlur_78_163" result="shape"/>
</filter>
<filter id="filter2_f_78_163" x="91.4092" y="108" width="35.1826" height="35.1821" filterUnits="userSpaceOnUse" color-interpolation-filters="sRGB">
<feFlood flood-opacity="0" result="BackgroundImageFix"/>
<feBlend mode="normal" in="SourceGraphic" in2="BackgroundImageFix" result="shape"/>
<feGaussianBlur stdDeviation="5" result="effect1_foregroundBlur_78_163"/>
</filter>
</defs>
</svg>
