<svg width="134" height="92" viewBox="0 0 134 92" fill="none" xmlns="http://www.w3.org/2000/svg">
<g filter="url(#filter0_b_78_181)">
<rect y="0.408936" width="133.141" height="65.6502" rx="9.2033" fill="white" fill-opacity="0.08"/>
<rect x="0.306777" y="0.715712" width="132.528" height="65.0367" rx="8.89653" stroke="white" stroke-opacity="0.08" stroke-width="0.613554"/>
<path d="M30.2122 21.7196H25.3253V17.5505C29.4668 17.5505 30.7368 16.9431 31.6203 14.4582H35.8723V35H30.2122V21.7196ZM51.4826 35.3037H50.3782C41.7916 35.3037 40.5215 30.969 40.5215 29.2571V28.8706H46.5129C46.5957 29.34 47.2031 30.7205 50.9857 30.7205C54.5473 30.7205 55.6793 29.5608 55.6793 28.1804V28.0147C55.6793 26.5514 54.6302 25.5574 50.9857 25.5574C47.3135 25.5574 46.5405 26.6342 46.4576 27.1588H40.8252V14.4582H59.9037V19.1243H46.4576V22.9345C46.6785 22.7136 48.5284 21.3331 52.2281 21.3331H52.5042C59.6552 21.3331 61.3394 24.6739 61.3394 27.711V28.0423C61.3394 31.1622 59.3791 35.3037 51.4826 35.3037ZM76.1049 14.1269H77.2645C86.9003 14.1269 88.7502 20.6152 88.7502 24.2597V25.088C88.7502 28.6773 86.8451 35.3313 77.2645 35.3313H76.1049C66.4966 35.3313 64.6191 28.6773 64.6191 25.088V24.2597C64.6191 20.5324 66.4966 14.1269 76.1049 14.1269ZM82.8417 24.8396V24.453C82.8417 22.6032 82.0686 18.8206 76.6847 18.8206C71.2455 18.8206 70.5277 22.6032 70.5277 24.453V24.8396C70.5277 26.717 71.4112 30.61 76.7123 30.61C82.0134 30.61 82.8417 26.717 82.8417 24.8396ZM107.002 27.9871H101.839V33.2606H97.6971V27.9871H92.5064V24.3426H97.6971V19.0967H101.839V24.3426H107.002V27.9871Z" fill="#EBEBEB"/>
<g filter="url(#filter1_b_78_181)">
<path d="M66.877 65.6436L77.7231 65.6436L66.877 76.4898L56.0308 65.6436L66.877 65.6436Z" fill="white" fill-opacity="0.08"/>
<path d="M66.877 65.9503H76.9825L66.877 76.0559L56.7714 65.9503H66.877Z" stroke="white" stroke-opacity="0.08" stroke-width="0.613554"/>
</g>
<path d="M52.568 54L48.606 49.072L49.208 48.722L53.408 54H52.568ZM45.764 54V44.2H46.478V54H45.764ZM46.24 49.352V48.708H49.222V49.352H46.24ZM49.25 49.17L48.592 49.03L52.358 44.2H53.156L49.25 49.17ZM57.7345 54.056C57.0345 54.056 56.4092 53.8973 55.8585 53.58C55.3172 53.2627 54.8832 52.824 54.5565 52.264C54.2392 51.704 54.0805 51.0647 54.0805 50.346C54.0805 49.618 54.2392 48.9787 54.5565 48.428C54.8832 47.868 55.3172 47.4293 55.8585 47.112C56.4092 46.7947 57.0345 46.636 57.7345 46.636C58.4345 46.636 59.0599 46.7947 59.6105 47.112C60.1612 47.4293 60.5952 47.868 60.9125 48.428C61.2299 48.9787 61.3885 49.618 61.3885 50.346C61.3885 51.0647 61.2299 51.704 60.9125 52.264C60.5952 52.824 60.1612 53.2627 59.6105 53.58C59.0599 53.8973 58.4345 54.056 57.7345 54.056ZM57.7345 53.426C58.2945 53.426 58.7985 53.3 59.2465 53.048C59.6945 52.7867 60.0445 52.4227 60.2965 51.956C60.5485 51.4893 60.6745 50.9527 60.6745 50.346C60.6745 49.73 60.5485 49.1933 60.2965 48.736C60.0445 48.2693 59.6945 47.91 59.2465 47.658C58.7985 47.3967 58.2945 47.266 57.7345 47.266C57.1745 47.266 56.6705 47.3967 56.2225 47.658C55.7839 47.91 55.4339 48.2693 55.1725 48.736C54.9205 49.1933 54.7945 49.73 54.7945 50.346C54.7945 50.9527 54.9205 51.4893 55.1725 51.956C55.4339 52.4227 55.7839 52.7867 56.2225 53.048C56.6705 53.3 57.1745 53.426 57.7345 53.426ZM67.3503 54.056C66.7063 54.056 66.1229 53.9067 65.6003 53.608C65.0869 53.3093 64.6763 52.8847 64.3683 52.334C64.0696 51.774 63.9203 51.1113 63.9203 50.346C63.9203 49.5807 64.0696 48.9227 64.3683 48.372C64.6763 47.812 65.0869 47.3827 65.6003 47.084C66.1229 46.7853 66.7063 46.636 67.3503 46.636C68.0409 46.636 68.6569 46.7947 69.1983 47.112C69.7489 47.42 70.1783 47.854 70.4863 48.414C70.8036 48.974 70.9623 49.618 70.9623 50.346C70.9623 51.074 70.8036 51.718 70.4863 52.278C70.1783 52.838 69.7489 53.2767 69.1983 53.594C68.6569 53.902 68.0409 54.056 67.3503 54.056ZM63.6823 56.716V46.692H64.3543V49.086L64.2423 50.36L64.3823 51.634V56.716H63.6823ZM67.3083 53.426C67.8683 53.426 68.3723 53.3 68.8203 53.048C69.2683 52.7867 69.6183 52.4227 69.8702 51.956C70.1316 51.4893 70.2623 50.9527 70.2623 50.346C70.2623 49.73 70.1316 49.1933 69.8702 48.736C69.6183 48.2693 69.2683 47.91 68.8203 47.658C68.3723 47.3967 67.8683 47.266 67.3083 47.266C66.7483 47.266 66.2443 47.3967 65.7963 47.658C65.3576 47.91 65.0076 48.2693 64.7463 48.736C64.4943 49.1933 64.3683 49.73 64.3683 50.346C64.3683 50.9527 64.4943 51.4893 64.7463 51.956C65.0076 52.4227 65.3576 52.7867 65.7963 53.048C66.2443 53.3 66.7483 53.426 67.3083 53.426ZM76.2626 54.056C75.5252 54.056 74.8719 53.8973 74.3026 53.58C73.7426 53.2627 73.2992 52.824 72.9726 52.264C72.6552 51.704 72.4966 51.0647 72.4966 50.346C72.4966 49.618 72.6459 48.9787 72.9446 48.428C73.2526 47.868 73.6726 47.4293 74.2046 47.112C74.7366 46.7947 75.3339 46.636 75.9966 46.636C76.6592 46.636 77.2519 46.79 77.7746 47.098C78.3066 47.406 78.7219 47.84 79.0206 48.4C79.3286 48.9507 79.4826 49.59 79.4826 50.318C79.4826 50.346 79.4779 50.3787 79.4686 50.416C79.4686 50.444 79.4686 50.4767 79.4686 50.514H73.0146V49.968H79.0906L78.8106 50.234C78.8199 49.6647 78.6986 49.156 78.4466 48.708C78.2039 48.2507 77.8726 47.896 77.4526 47.644C77.0326 47.3827 76.5472 47.252 75.9966 47.252C75.4552 47.252 74.9699 47.3827 74.5406 47.644C74.1206 47.896 73.7892 48.2507 73.5466 48.708C73.3039 49.156 73.1826 49.6693 73.1826 50.248V50.374C73.1826 50.9713 73.3132 51.5033 73.5746 51.97C73.8452 52.4273 74.2139 52.7867 74.6806 53.048C75.1472 53.3 75.6792 53.426 76.2766 53.426C76.7432 53.426 77.1772 53.342 77.5786 53.174C77.9892 53.006 78.3346 52.7493 78.6146 52.404L79.0206 52.866C78.7032 53.258 78.3019 53.5567 77.8166 53.762C77.3406 53.958 76.8226 54.056 76.2626 54.056ZM86.3107 54V51.312L86.4647 51.48H83.8747C82.9601 51.48 82.2461 51.284 81.7327 50.892C81.2287 50.4907 80.9767 49.9027 80.9767 49.128C80.9767 48.3067 81.2521 47.6953 81.8027 47.294C82.3534 46.8927 83.0814 46.692 83.9867 46.692H86.9547V54H86.3107ZM80.9347 54L82.9647 51.186H83.7067L81.7047 54H80.9347ZM86.3107 51.116V47.098L86.4647 47.308H84.0287C83.2821 47.308 82.7034 47.4527 82.2927 47.742C81.8821 48.0313 81.6767 48.5027 81.6767 49.156C81.6767 50.3507 82.4327 50.948 83.9447 50.948H86.4647L86.3107 51.116Z" fill="white"/>
</g>
<g filter="url(#filter2_f_78_181)">
<circle cx="66.8773" cy="81.1473" r="4.65752" fill="#1190D8"/>
</g>
<defs>
<filter id="filter0_b_78_181" x="-12.2711" y="-11.8621" width="157.683" height="100.623" filterUnits="userSpaceOnUse" color-interpolation-filters="sRGB">
<feFlood flood-opacity="0" result="BackgroundImageFix"/>
<feGaussianBlur in="BackgroundImageFix" stdDeviation="6.13554"/>
<feComposite in2="SourceAlpha" operator="in" result="effect1_backgroundBlur_78_181"/>
<feBlend mode="normal" in="SourceGraphic" in2="effect1_backgroundBlur_78_181" result="shape"/>
</filter>
<filter id="filter1_b_78_181" x="43.7592" y="53.3725" width="46.2355" height="35.3883" filterUnits="userSpaceOnUse" color-interpolation-filters="sRGB">
<feFlood flood-opacity="0" result="BackgroundImageFix"/>
<feGaussianBlur in="BackgroundImageFix" stdDeviation="6.13554"/>
<feComposite in2="SourceAlpha" operator="in" result="effect1_backgroundBlur_78_181"/>
<feBlend mode="normal" in="SourceGraphic" in2="effect1_backgroundBlur_78_181" result="shape"/>
</filter>
<filter id="filter2_f_78_181" x="56.0842" y="70.3542" width="21.5865" height="21.5861" filterUnits="userSpaceOnUse" color-interpolation-filters="sRGB">
<feFlood flood-opacity="0" result="BackgroundImageFix"/>
<feBlend mode="normal" in="SourceGraphic" in2="BackgroundImageFix" result="shape"/>
<feGaussianBlur stdDeviation="3.06777" result="effect1_foregroundBlur_78_181"/>
</filter>
</defs>
</svg>
