<svg width="692" height="685" viewBox="0 0 692 685" fill="none" xmlns="http://www.w3.org/2000/svg">
<path d="M148.328 648.616L141.115 652.911C90.4135 619.481 48.5695 574.26 19.1667 521.121L24.4597 515.135C53.8879 569.322 96.4868 615.227 148.328 648.616Z" fill="#82F7FF" fill-opacity="0.5"/>
<path d="M225.937 681.836L221.109 684.711C195.599 675.433 171.209 663.325 148.395 648.616C96.5296 615.236 53.9068 569.33 24.4596 515.135C16.2441 500.002 9.11804 484.304 3.13574 468.158L6.39943 464.463C24.7048 514.639 53.8792 560.147 91.8333 597.727C129.787 635.307 175.582 664.029 225.937 681.836Z" fill="#82F7FF" fill-opacity="0.5"/>
<path d="M144.463 35.9815C93.894 69.4556 52.4036 114.934 23.6985 168.355L17.4417 164.128C46.2594 110.839 87.5314 65.3057 137.741 31.4072L144.463 35.9815Z" fill="#82F7FF" fill-opacity="0.5"/>
<path d="M218.234 3.04018C168.836 21.7795 124.135 51.0976 87.2655 88.9386C50.3957 126.78 22.2497 172.228 4.80087 222.096L0.877686 220.151C7.12105 202.316 14.7541 184.997 23.7066 168.355C52.4093 114.935 93.8968 69.4566 144.463 35.9814C166.24 21.5478 189.511 9.50564 213.871 0.0639648L218.234 3.04018Z" fill="#82F7FF" fill-opacity="0.5"/>
<path d="M543.673 648.616L550.885 652.911C601.587 619.481 643.431 574.26 672.834 521.121L667.541 515.135C638.113 569.322 595.514 615.227 543.673 648.616Z" fill="#82F7FF" fill-opacity="0.5"/>
<path d="M466.063 681.836L470.891 684.711C496.401 675.433 520.791 663.325 543.605 648.616C595.446 615.227 638.045 569.322 667.473 515.135C675.689 500.002 682.815 484.304 688.797 468.158L685.534 464.463C667.235 514.632 638.071 560.136 600.129 597.715C562.187 635.295 516.406 664.02 466.063 681.836Z" fill="#82F7FF" fill-opacity="0.5"/>
<path d="M547.537 35.9815C598.106 69.4556 639.597 114.934 668.302 168.355L674.559 164.128C645.741 110.839 604.469 65.3057 554.259 31.4072L547.537 35.9815Z" fill="#82F7FF" fill-opacity="0.5"/>
<path d="M473.766 3.04018C523.164 21.7795 567.865 51.0976 604.735 88.9386C641.604 126.78 669.75 172.228 687.199 222.096L691.122 220.151C684.879 202.316 677.246 184.997 668.293 168.355C639.591 114.935 598.103 69.4566 547.537 35.9814C525.76 21.5478 502.489 9.50564 478.129 0.0639648L473.766 3.04018Z" fill="#82F7FF" fill-opacity="0.5"/>
</svg>
