<svg width="842" height="842" viewBox="0 0 842 842" fill="none" xmlns="http://www.w3.org/2000/svg">
<path d="M841.118 420.568C841.12 436.387 840.239 452.195 838.48 467.916C837.353 477.865 835.893 487.713 834.1 497.459C821.803 563.806 793.667 626.203 752.085 679.346C675.11 777.874 555.233 841.127 420.559 841.127C188.296 841.127 0 652.839 0 420.568C0 188.296 188.296 0 420.559 0C557.778 0 679.65 65.7134 756.406 167.412C772.407 188.59 786.361 211.238 798.081 235.053C815.41 270.225 827.695 307.663 834.574 346.264C836.518 357.165 838.035 368.199 839.123 379.366C840.442 392.922 841.107 406.656 841.118 420.568Z" fill="#020001"/>
</svg>
