<svg width="636" height="641" viewBox="0 0 636 641" fill="none" xmlns="http://www.w3.org/2000/svg">
<path d="M635.397 427.092L633.012 433.298L632.852 433.238L635.236 427.041L635.397 427.092Z" fill="white"/>
<path d="M630.518 439.453L627.897 445.558L627.728 445.49L630.349 439.385L630.518 439.453Z" fill="white"/>
<path d="M625.149 451.611L622.282 457.606L622.113 457.521L624.98 451.535L625.149 451.611Z" fill="white"/>
<path d="M619.306 463.55L616.203 469.426L616.025 469.333L619.128 463.457L619.306 463.55Z" fill="white"/>
<path d="M612.99 475.244L609.659 480.993L609.473 480.883L612.812 475.142L612.99 475.244Z" fill="white"/>
<path d="M606.218 486.675L602.658 492.289L602.472 492.171L606.032 486.565L606.218 486.675Z" fill="white"/>
<path d="M598.997 497.836L595.217 503.298L595.031 503.171L598.811 497.709L598.997 497.836Z" fill="white"/>
<path d="M591.337 508.692L587.354 514.01L587.16 513.866L591.15 508.557L591.337 508.692Z" fill="white"/>
<path d="M583.262 519.244L579.068 524.402L578.874 524.241L583.067 519.092L583.262 519.244Z" fill="white"/>
<path d="M574.773 529.475L570.385 534.455L570.19 534.286L574.578 529.306L574.773 529.475Z" fill="white"/>
<path d="M565.895 539.35L561.304 544.161L561.118 543.975L565.701 539.173L565.895 539.35Z" fill="white"/>
<path d="M556.628 548.88L551.859 553.505L551.665 553.302L556.434 548.685L556.628 548.88Z" fill="white"/>
<path d="M546.998 558.028L542.043 562.467L541.857 562.247L546.803 557.825L546.998 558.028Z" fill="white"/>
<path d="M537.012 566.796L531.897 571.032L531.711 570.804L536.826 566.576L537.012 566.796Z" fill="white"/>
<path d="M526.688 575.166L521.404 579.2L521.218 578.954L526.502 574.93L526.688 575.166Z" fill="white"/>
<path d="M516.035 583.123L510.598 586.945L510.421 586.691L515.857 582.878L516.035 583.123Z" fill="white"/>
<path d="M505.086 590.656L499.497 594.258L499.319 593.988L504.908 590.394L505.086 590.656Z" fill="white"/>
<path d="M493.84 597.75L488.108 601.132L487.947 600.845L493.671 597.471L493.84 597.75Z" fill="white"/>
<path d="M482.324 604.396L476.465 607.541L476.304 607.237L482.155 604.1L482.324 604.396Z" fill="white"/>
<path d="M470.547 610.577L464.569 613.494L464.417 613.172L470.394 610.264L470.547 610.577Z" fill="white"/>
<path d="M458.54 616.284L452.453 618.956L452.317 618.626L458.397 615.954L458.54 616.284Z" fill="white"/>
<path d="M446.323 621.509L440.133 623.936L439.998 623.589L446.179 621.163L446.323 621.509Z" fill="white"/>
<path d="M250.467 638.524L243.982 637.078L244.092 636.58L250.577 638.025L250.467 638.524Z" fill="white"/>
<path d="M237.514 635.497L231.088 633.798L231.223 633.291L237.641 634.998L237.514 635.497Z" fill="white"/>
<path d="M224.687 631.963L218.329 630.001L218.498 629.494L224.839 631.456L224.687 631.963Z" fill="white"/>
<path d="M212.013 627.913L205.74 625.706L205.926 625.199L212.191 627.406L212.013 627.913Z" fill="white"/>
<path d="M199.517 623.364L193.336 620.912L193.539 620.396L199.711 622.857L199.517 623.364Z" fill="white"/>
<path d="M187.206 618.325L181.126 615.619L181.355 615.112L187.426 617.817L187.206 618.325Z" fill="white"/>
<path d="M175.098 612.795L169.137 609.853L169.391 609.345L175.343 612.288L175.098 612.795Z" fill="white"/>
<path d="M163.227 606.792L157.385 603.613L157.664 603.105L163.498 606.285L163.227 606.792Z" fill="white"/>
<path d="M151.61 600.315L145.894 596.908L146.198 596.409L151.897 599.808L151.61 600.315Z" fill="white"/>
<path d="M140.246 593.39L134.674 589.755L135.004 589.256L140.567 592.892L140.246 593.39Z" fill="white"/>
<path d="M129.178 586.018L123.75 582.171L124.105 581.68L129.516 585.519L129.178 586.018Z" fill="white"/>
<path d="M118.398 578.214L113.13 574.155L113.511 573.673L118.77 577.723L118.398 578.214Z" fill="white"/>
<path d="M107.947 569.995L102.84 565.734L103.246 565.252L108.336 569.513L107.947 569.995Z" fill="white"/>
<path d="M97.8179 561.363L92.8801 556.907L93.3198 556.442L98.2407 560.898L97.8179 561.363Z" fill="white"/>
<path d="M88.0439 552.349L83.2837 547.699L83.7403 547.242L88.4836 551.884L88.0439 552.349Z" fill="white"/>
<path d="M78.6249 542.956L74.0591 538.119L74.541 537.671L79.0899 542.507L78.6249 542.956Z" fill="white"/>
<path d="M69.5867 533.198L65.2153 528.184L65.7142 527.753L70.077 532.759L69.5867 533.198Z" fill="white"/>
<path d="M60.9369 523.086L56.7686 517.911L57.2928 517.497L61.4612 522.663L60.9369 523.086Z" fill="white"/>
<path d="M52.693 512.644L48.7275 507.309L49.2771 506.903L53.2341 512.238L52.693 512.644Z" fill="white"/>
<path d="M44.8634 501.889L41.1094 496.393L41.6843 496.004L45.4299 501.492L44.8634 501.889Z" fill="white"/>
<path d="M37.4654 490.821L33.9312 485.182L34.5315 484.818L38.0573 490.449L37.4654 490.821Z" fill="white"/>
<path d="M30.5151 479.475L27.2007 473.7L27.8264 473.353L31.1238 479.119L30.5151 479.475Z" fill="white"/>
<path d="M24.0127 467.857L20.9351 461.955L21.5777 461.634L24.6384 467.519L24.0127 467.857Z" fill="white"/>
<path d="M17.9762 455.994L15.1353 449.974L15.8032 449.67L18.6272 455.682L17.9762 455.994Z" fill="white"/>
<path d="M12.4209 443.904L9.8252 437.774L10.5016 437.495L13.0889 443.608L12.4209 443.904Z" fill="white"/>
<path d="M7.34809 431.601L4.99756 425.378L5.69932 425.116L8.04142 431.331L7.34809 431.601Z" fill="white"/>
<path d="M0 209.662L2.05459 203.329L2.76482 203.566L0.718693 209.882L0 209.662Z" fill="white"/>
<path d="M4.22778 197.039L6.52758 190.79L7.22091 191.052L4.92955 197.284L4.22778 197.039Z" fill="white"/>
<path d="M8.96265 184.593L11.5077 178.446L12.1841 178.733L9.63905 184.872L8.96265 184.593Z" fill="white"/>
<path d="M14.1794 172.35L16.9696 166.304L17.6292 166.617L14.8474 172.646L14.1794 172.35Z" fill="white"/>
<path d="M19.8865 160.326L22.9134 154.399L23.5476 154.729L20.5291 160.648L19.8865 160.326Z" fill="white"/>
<path d="M26.0591 148.531L29.3228 142.731L29.94 143.086L26.6848 148.878L26.0591 148.531Z" fill="white"/>
<path d="M32.7046 136.999L36.1966 131.334L36.78 131.706L33.3049 137.362L32.7046 136.999Z" fill="white"/>
<path d="M39.79 125.737L43.5018 120.215L44.0683 120.604L40.3734 126.117L39.79 125.737Z" fill="white"/>
<path d="M47.3235 114.77L51.2467 109.401L51.7878 109.799L47.8731 115.168L47.3235 114.77Z" fill="white"/>
<path d="M55.2798 104.108L59.4144 98.8914L59.9301 99.3141L55.8125 104.514L55.2798 104.108Z" fill="white"/>
<path d="M63.6504 93.7675L67.9879 88.7197L68.4783 89.1509L64.1577 94.1902L63.6504 93.7675Z" fill="white"/>
<path d="M72.4185 83.7649L76.9504 78.8948L77.4155 79.3345L72.9004 84.1962L72.4185 83.7649Z" fill="white"/>
<path d="M81.1096 74.1092L85.8276 69.425L86.2757 69.8816L81.5662 74.5658L81.1096 74.1092Z" fill="white"/>
<path d="M90.6384 64.8341L95.5339 60.3359L95.9567 60.801L91.0696 65.2906L90.6384 64.8341Z" fill="white"/>
<path d="M100.522 55.9306L105.587 51.627L105.985 52.1089L100.928 56.4041L100.522 55.9306Z" fill="white"/>
<path d="M110.745 47.4333L115.987 43.3325L116.359 43.8145L111.125 47.9068L110.745 47.4333Z" fill="white"/>
<path d="M121.305 39.3332L126.7 35.4438L127.046 35.9342L121.661 39.8236L121.305 39.3332Z" fill="white"/>
<path d="M132.644 31.9789L138.19 28.3093L138.52 28.7997L132.982 32.4777L132.644 31.9789Z" fill="white"/>
<path d="M143.813 24.7414L149.503 21.2917L149.799 21.7906L144.126 25.2403L143.813 24.7414Z" fill="white"/>
<path d="M155.253 17.9519L161.07 14.7305L161.349 15.2293L155.54 18.4592L155.253 17.9519Z" fill="white"/>
<path d="M166.955 11.6189L172.899 8.63428L173.144 9.13313L167.217 12.1263L166.955 11.6189Z" fill="white"/>
<path d="M178.902 5.75964L184.956 3.01172L185.184 3.51057L179.139 6.26693L178.902 5.75964Z" fill="white"/>
<path d="M450.068 0L456.181 2.62956L456.037 2.95086L449.933 0.329763L450.068 0Z" fill="white"/>
<path d="M462.235 5.36572L468.23 8.232L468.077 8.54484L462.083 5.67856L462.235 5.36572Z" fill="white"/>
<path d="M474.174 11.2166L480.05 14.3196L479.889 14.6155L474.013 11.521L474.174 11.2166Z" fill="white"/>
<path d="M485.867 17.541L491.617 20.8723L491.456 21.1514L485.707 17.8285L485.867 17.541Z" fill="white"/>
<path d="M497.307 24.322L502.921 27.8817L502.744 28.1438L497.129 24.5926L497.307 24.322Z" fill="white"/>
<path d="M508.459 31.5427L513.93 35.3222L513.752 35.5758L508.282 31.8048L508.459 31.5427Z" fill="white"/>
<path d="M519.324 39.2117L524.634 43.2025L524.456 43.4392L519.138 39.4569L519.324 39.2117Z" fill="white"/>
<path d="M529.867 47.2947L535.025 51.4884L534.839 51.7083L529.69 47.523L529.867 47.2947Z" fill="white"/>
<path d="M540.09 55.7837L545.078 60.1804L544.892 60.3917L539.904 56.0035L540.09 55.7837Z" fill="white"/>
<path d="M549.974 64.6699L554.776 69.2611L554.59 69.4555L549.779 64.8729L549.974 64.6699Z" fill="white"/>
<path d="M559.495 73.937L564.111 78.7142L563.925 78.8917L559.3 74.1315L559.495 73.937Z" fill="white"/>
<path d="M568.643 83.5757L573.073 88.522L572.879 88.691L568.448 83.7532L568.643 83.5757Z" fill="white"/>
<path d="M577.403 93.5613L581.639 98.6851L581.444 98.8373L577.217 93.7219L577.403 93.5613Z" fill="white"/>
<path d="M585.765 103.885L589.798 109.178L589.612 109.313L585.579 104.037L585.765 103.885Z" fill="white"/>
<path d="M593.721 114.539L597.534 119.975L597.348 120.111L593.535 114.674L593.721 114.539Z" fill="white"/>
<path d="M601.246 125.496L604.848 131.085L604.662 131.195L601.06 125.615L601.246 125.496Z" fill="white"/>
<path d="M608.332 136.742L611.705 142.466L611.528 142.567L608.154 136.852L608.332 136.742Z" fill="white"/>
<path d="M614.969 148.258L618.114 154.109L617.936 154.202L614.791 148.351L614.969 148.258Z" fill="white"/>
<path d="M621.141 160.027L624.049 165.996L623.88 166.081L620.972 160.112L621.141 160.027Z" fill="white"/>
</svg>
