<svg width="217" height="150" viewBox="0 0 217 150" fill="none" xmlns="http://www.w3.org/2000/svg">
<g filter="url(#filter0_b_78_187)">
<rect width="217" height="107" rx="15" fill="white" fill-opacity="0.08"/>
<rect x="0.5" y="0.5" width="216" height="106" rx="14.5" stroke="white" stroke-opacity="0.08"/>
<path d="M79.575 60H44.79V55.14C44.79 50.37 45.42 45.96 58.02 42L63.375 40.38C67.83 39.075 69 38.175 69 36.51C69 34.71 67.83 33.27 62.295 33.27C55.725 33.27 55.185 36.96 55.05 38.58H45.375V38.265C45.375 33.72 47.625 26.115 61.125 26.115H63.15C75.12 26.115 78.81 30.75 78.81 36.465V36.825C78.81 42.63 75.57 45.06 66.255 47.22C64.455 47.625 62.475 48.075 60.9 48.48C54.285 50.145 53.115 51.27 53.115 51.99H79.575V60ZM84.0247 52.71V46.815L102.34 26.295H114.58V45.51H121.69V52.71H114.58V60H105.4V52.71H84.0247ZM105.4 45.51V32.595L93.9247 45.51H105.4ZM130.963 38.355H122.998V31.56C129.748 31.56 131.818 30.57 133.258 26.52H140.188V60H130.963V38.355ZM171.435 48.57H163.02V57.165H156.27V48.57H147.81V42.63H156.27V34.08H163.02V42.63H171.435V48.57Z" fill="#EBEBEB"/>
<path d="M86.016 84.5911L80.922 78.2551L81.696 77.8051L87.096 84.5911H86.016ZM77.268 84.5911V71.9911H78.186V84.5911H77.268ZM77.88 78.6151V77.7871H81.714V78.6151H77.88ZM81.75 78.3811L80.904 78.2011L85.746 71.9911H86.772L81.75 78.3811ZM95.0464 84.5911V82.4491L95.0104 82.1251V78.5971C95.0104 77.7211 94.7704 77.0551 94.2904 76.5991C93.8224 76.1431 93.1324 75.9151 92.2204 75.9151C91.5724 75.9151 90.9664 76.0291 90.4024 76.2571C89.8504 76.4731 89.3764 76.7551 88.9804 77.1031L88.5304 76.4551C88.9984 76.0351 89.5624 75.7111 90.2224 75.4831C90.8824 75.2431 91.5724 75.1231 92.2924 75.1231C93.4564 75.1231 94.3504 75.4171 94.9744 76.0051C95.5984 76.5931 95.9104 77.4691 95.9104 78.6331V84.5911H95.0464ZM91.6624 84.6631C90.9664 84.6631 90.3604 84.5551 89.8444 84.3391C89.3404 84.1111 88.9504 83.7931 88.6744 83.3851C88.4104 82.9771 88.2784 82.5091 88.2784 81.9811C88.2784 81.5011 88.3864 81.0691 88.6024 80.6851C88.8304 80.2891 89.2024 79.9711 89.7184 79.7311C90.2344 79.4791 90.9244 79.3531 91.7884 79.3531H95.2444V80.0551H91.8064C90.8344 80.0551 90.1504 80.2351 89.7544 80.5951C89.3704 80.9551 89.1784 81.4051 89.1784 81.9451C89.1784 82.5451 89.4064 83.0251 89.8624 83.3851C90.3184 83.7451 90.9604 83.9251 91.7884 83.9251C92.5804 83.9251 93.2464 83.7451 93.7864 83.3851C94.3384 83.0251 94.7464 82.5031 95.0104 81.8191L95.2624 82.4311C95.0104 83.1151 94.5784 83.6611 93.9664 84.0691C93.3664 84.4651 92.5984 84.6631 91.6624 84.6631ZM99.567 84.5911V75.1951H100.467V79.4791H106.839V75.1951H107.739V84.5911H106.839V80.2711H100.467V84.5911H99.567ZM117.494 84.5911V82.4491L117.458 82.1251V78.5971C117.458 77.7211 117.218 77.0551 116.738 76.5991C116.27 76.1431 115.58 75.9151 114.668 75.9151C114.02 75.9151 113.414 76.0291 112.85 76.2571C112.298 76.4731 111.824 76.7551 111.428 77.1031L110.978 76.4551C111.446 76.0351 112.01 75.7111 112.67 75.4831C113.33 75.2431 114.02 75.1231 114.74 75.1231C115.904 75.1231 116.798 75.4171 117.422 76.0051C118.046 76.5931 118.358 77.4691 118.358 78.6331V84.5911H117.494ZM114.11 84.6631C113.414 84.6631 112.808 84.5551 112.292 84.3391C111.788 84.1111 111.398 83.7931 111.122 83.3851C110.858 82.9771 110.726 82.5091 110.726 81.9811C110.726 81.5011 110.834 81.0691 111.05 80.6851C111.278 80.2891 111.65 79.9711 112.166 79.7311C112.682 79.4791 113.372 79.3531 114.236 79.3531H117.692V80.0551H114.254C113.282 80.0551 112.598 80.2351 112.202 80.5951C111.818 80.9551 111.626 81.4051 111.626 81.9451C111.626 82.5451 111.854 83.0251 112.31 83.3851C112.766 83.7451 113.408 83.9251 114.236 83.9251C115.028 83.9251 115.694 83.7451 116.234 83.3851C116.786 83.0251 117.194 82.5031 117.458 81.8191L117.71 82.4311C117.458 83.1151 117.026 83.6611 116.414 84.0691C115.814 84.4651 115.046 84.6631 114.11 84.6631ZM128.44 84.1591V76.0051H123.544L123.436 78.3451C123.412 79.0051 123.37 79.6651 123.31 80.3251C123.25 80.9731 123.154 81.5731 123.022 82.1251C122.89 82.6651 122.704 83.1031 122.464 83.4391C122.236 83.7751 121.936 83.9611 121.564 83.9971L120.664 83.7991C121.048 83.8231 121.36 83.6851 121.6 83.3851C121.84 83.0731 122.026 82.6531 122.158 82.1251C122.29 81.5971 122.386 81.0031 122.446 80.3431C122.518 79.6711 122.572 78.9871 122.608 78.2911L122.734 75.1951H129.34V84.1591H128.44ZM120.25 86.9311V83.7991H130.852V86.9311H130.006V84.5911H121.114V86.9311H120.25ZM139.378 84.5911V82.4491L139.342 82.1251V78.5971C139.342 77.7211 139.102 77.0551 138.622 76.5991C138.154 76.1431 137.464 75.9151 136.552 75.9151C135.904 75.9151 135.298 76.0291 134.734 76.2571C134.182 76.4731 133.708 76.7551 133.312 77.1031L132.862 76.4551C133.33 76.0351 133.894 75.7111 134.554 75.4831C135.214 75.2431 135.904 75.1231 136.624 75.1231C137.788 75.1231 138.682 75.4171 139.306 76.0051C139.93 76.5931 140.242 77.4691 140.242 78.6331V84.5911H139.378ZM135.994 84.6631C135.298 84.6631 134.692 84.5551 134.176 84.3391C133.672 84.1111 133.282 83.7931 133.006 83.3851C132.742 82.9771 132.61 82.5091 132.61 81.9811C132.61 81.5011 132.718 81.0691 132.934 80.6851C133.162 80.2891 133.534 79.9711 134.05 79.7311C134.566 79.4791 135.256 79.3531 136.12 79.3531H139.576V80.0551H136.138C135.166 80.0551 134.482 80.2351 134.086 80.5951C133.702 80.9551 133.51 81.4051 133.51 81.9451C133.51 82.5451 133.738 83.0251 134.194 83.3851C134.65 83.7451 135.292 83.9251 136.12 83.9251C136.912 83.9251 137.578 83.7451 138.118 83.3851C138.67 83.0251 139.078 82.5031 139.342 81.8191L139.594 82.4311C139.342 83.1151 138.91 83.6611 138.298 84.0691C137.698 84.4651 136.93 84.6631 135.994 84.6631Z" fill="white"/>
<g filter="url(#filter1_b_78_187)">
<path d="M109 106.322L126.678 106.322L109 124L91.3223 106.322L109 106.322Z" fill="white" fill-opacity="0.08"/>
<path d="M109 106.822L125.471 106.822L109 123.293L92.5294 106.822L109 106.822Z" stroke="white" stroke-opacity="0.08"/>
</g>
</g>
<g filter="url(#filter2_f_78_187)">
<circle cx="109" cy="131.591" r="7.59106" fill="#1190D8"/>
</g>
<defs>
<filter id="filter0_b_78_187" x="-20" y="-20" width="257" height="164" filterUnits="userSpaceOnUse" color-interpolation-filters="sRGB">
<feFlood flood-opacity="0" result="BackgroundImageFix"/>
<feGaussianBlur in="BackgroundImageFix" stdDeviation="10"/>
<feComposite in2="SourceAlpha" operator="in" result="effect1_backgroundBlur_78_187"/>
<feBlend mode="normal" in="SourceGraphic" in2="effect1_backgroundBlur_78_187" result="shape"/>
</filter>
<filter id="filter1_b_78_187" x="71.3223" y="86.3224" width="75.3555" height="57.6776" filterUnits="userSpaceOnUse" color-interpolation-filters="sRGB">
<feFlood flood-opacity="0" result="BackgroundImageFix"/>
<feGaussianBlur in="BackgroundImageFix" stdDeviation="10"/>
<feComposite in2="SourceAlpha" operator="in" result="effect1_backgroundBlur_78_187"/>
<feBlend mode="normal" in="SourceGraphic" in2="effect1_backgroundBlur_78_187" result="shape"/>
</filter>
<filter id="filter2_f_78_187" x="91.4092" y="114" width="35.1826" height="35.1821" filterUnits="userSpaceOnUse" color-interpolation-filters="sRGB">
<feFlood flood-opacity="0" result="BackgroundImageFix"/>
<feBlend mode="normal" in="SourceGraphic" in2="BackgroundImageFix" result="shape"/>
<feGaussianBlur stdDeviation="5" result="effect1_foregroundBlur_78_187"/>
</filter>
</defs>
</svg>
