<svg width="149" height="1066" viewBox="0 0 149 1066" fill="none" xmlns="http://www.w3.org/2000/svg">
<rect x="72.3579" y="315.148" width="3.50977" height="171.633" fill="#82F7FF"/>
<rect x="72.3579" y="604.799" width="3.50977" height="171.633" fill="#82F7FF"/>
<rect x="72.3579" width="3.50977" height="171.633" fill="#82F7FF"/>
<rect x="1.23521" y="170.611" width="145.755" height="145.755" rx="72.8776" fill="#010101"/>
<rect x="1.23521" y="170.611" width="145.755" height="145.755" rx="72.8776" stroke="#82F7FF" stroke-width="2.47043"/>
<path d="M27.1254 237.144C26.4774 237.144 25.8734 237.04 25.3134 236.832C24.7614 236.616 24.2814 236.312 23.8734 235.92C23.4654 235.528 23.1454 235.068 22.9134 234.54C22.6894 234.012 22.5774 233.432 22.5774 232.8C22.5774 232.168 22.6894 231.588 22.9134 231.06C23.1454 230.532 23.4654 230.072 23.8734 229.68C24.2894 229.288 24.7734 228.988 25.3254 228.78C25.8774 228.564 26.4814 228.456 27.1374 228.456C27.8654 228.456 28.5214 228.584 29.1054 228.84C29.6974 229.088 30.1934 229.456 30.5934 229.944L29.3454 231.096C29.0574 230.768 28.7374 230.524 28.3854 230.364C28.0334 230.196 27.6494 230.112 27.2334 230.112C26.8414 230.112 26.4814 230.176 26.1534 230.304C25.8254 230.432 25.5414 230.616 25.3014 230.856C25.0614 231.096 24.8734 231.38 24.7374 231.708C24.6094 232.036 24.5454 232.4 24.5454 232.8C24.5454 233.2 24.6094 233.564 24.7374 233.892C24.8734 234.22 25.0614 234.504 25.3014 234.744C25.5414 234.984 25.8254 235.168 26.1534 235.296C26.4814 235.424 26.8414 235.488 27.2334 235.488C27.6494 235.488 28.0334 235.408 28.3854 235.248C28.7374 235.08 29.0574 234.828 29.3454 234.492L30.5934 235.644C30.1934 236.132 29.6974 236.504 29.1054 236.76C28.5214 237.016 27.8614 237.144 27.1254 237.144ZM31.7164 237V230.544H38.1364V237H36.2644V231.66L36.6844 232.08H33.1564L33.5764 231.66V237H31.7164ZM43.0873 237.096C42.3513 237.096 41.7033 236.952 41.1433 236.664C40.5913 236.376 40.1633 235.984 39.8593 235.488C39.5553 234.984 39.4033 234.412 39.4033 233.772C39.4033 233.124 39.5513 232.552 39.8473 232.056C40.1513 231.552 40.5633 231.16 41.0833 230.88C41.6033 230.592 42.1913 230.448 42.8473 230.448C43.4793 230.448 44.0473 230.584 44.5513 230.856C45.0633 231.12 45.4673 231.504 45.7633 232.008C46.0593 232.504 46.2073 233.1 46.2073 233.796C46.2073 233.868 46.2033 233.952 46.1953 234.048C46.1873 234.136 46.1793 234.22 46.1713 234.3H40.9273V233.208H45.1873L44.4673 233.532C44.4673 233.196 44.3993 232.904 44.2633 232.656C44.1273 232.408 43.9393 232.216 43.6993 232.08C43.4593 231.936 43.1793 231.864 42.8593 231.864C42.5393 231.864 42.2553 231.936 42.0073 232.08C41.7673 232.216 41.5793 232.412 41.4433 232.668C41.3073 232.916 41.2393 233.212 41.2393 233.556V233.844C41.2393 234.196 41.3153 234.508 41.4673 234.78C41.6273 235.044 41.8473 235.248 42.1273 235.392C42.4153 235.528 42.7513 235.596 43.1353 235.596C43.4793 235.596 43.7793 235.544 44.0353 235.44C44.2993 235.336 44.5393 235.18 44.7553 234.972L45.7513 236.052C45.4553 236.388 45.0833 236.648 44.6353 236.832C44.1873 237.008 43.6713 237.096 43.0873 237.096ZM47.6422 237V230.544H49.5022V235.464H52.1062V230.544H53.9782V237H47.6422ZM53.1742 238.392V236.976L53.6062 237H52.1062V235.464H54.9142V238.392H53.1742ZM56.0914 237V230.544H57.9514V234.384L61.0954 230.544H62.8114V237H60.9514V233.16L57.8194 237H56.0914ZM68.4749 237V235.74L68.3549 235.464V233.208C68.3549 232.808 68.2309 232.496 67.9829 232.272C67.7429 232.048 67.3709 231.936 66.8669 231.936C66.5229 231.936 66.1829 231.992 65.8469 232.104C65.5189 232.208 65.2389 232.352 65.0069 232.536L64.3349 231.228C64.6869 230.98 65.1109 230.788 65.6069 230.652C66.1029 230.516 66.6069 230.448 67.1189 230.448C68.1029 230.448 68.8669 230.68 69.4109 231.144C69.9549 231.608 70.2269 232.332 70.2269 233.316V237H68.4749ZM66.5069 237.096C66.0029 237.096 65.5709 237.012 65.2109 236.844C64.8509 236.668 64.5749 236.432 64.3829 236.136C64.1909 235.84 64.0949 235.508 64.0949 235.14C64.0949 234.756 64.1869 234.42 64.3709 234.132C64.5629 233.844 64.8629 233.62 65.2709 233.46C65.6789 233.292 66.2109 233.208 66.8669 233.208H68.5829V234.3H67.0709C66.6309 234.3 66.3269 234.372 66.1589 234.516C65.9989 234.66 65.9189 234.84 65.9189 235.056C65.9189 235.296 66.0109 235.488 66.1949 235.632C66.3869 235.768 66.6469 235.836 66.9749 235.836C67.2869 235.836 67.5669 235.764 67.8149 235.62C68.0629 235.468 68.2429 235.248 68.3549 234.96L68.6429 235.824C68.5069 236.24 68.2589 236.556 67.8989 236.772C67.5389 236.988 67.0749 237.096 66.5069 237.096ZM71.0371 236.988L71.1331 235.452C71.1811 235.46 71.2291 235.468 71.2771 235.476C71.3251 235.476 71.3691 235.476 71.4091 235.476C71.6331 235.476 71.8091 235.412 71.9371 235.284C72.0651 235.156 72.1611 234.984 72.2251 234.768C72.2891 234.544 72.3331 234.292 72.3571 234.012C72.3891 233.732 72.4131 233.44 72.4291 233.136L72.5251 230.544H78.0451V237H76.1731V231.624L76.5931 232.08H73.7611L74.1571 231.6L74.0731 233.22C74.0491 233.796 74.0011 234.324 73.9291 234.804C73.8651 235.284 73.7571 235.7 73.6051 236.052C73.4531 236.396 73.2491 236.664 72.9931 236.856C72.7371 237.04 72.4091 237.132 72.0091 237.132C71.8651 237.132 71.7131 237.12 71.5531 237.096C71.3931 237.072 71.2211 237.036 71.0371 236.988ZM79.8453 237V230.544H81.7053V234.384L84.8493 230.544H86.5653V237H84.7053V233.16L81.5733 237H79.8453ZM90.4902 237.12C89.9943 237.12 89.4983 237.068 89.0023 236.964C88.5143 236.86 88.0623 236.704 87.6463 236.496L88.1503 235.188C88.4783 235.348 88.8343 235.472 89.2183 235.56C89.6103 235.64 90.0063 235.68 90.4062 235.68C90.6943 235.68 90.9423 235.652 91.1503 235.596C91.3663 235.532 91.5303 235.444 91.6423 235.332C91.7543 235.22 91.8103 235.084 91.8103 234.924C91.8103 234.716 91.7223 234.56 91.5463 234.456C91.3703 234.344 91.1143 234.288 90.7783 234.288H89.4583V233.124H90.6223C90.8383 233.124 91.0223 233.1 91.1743 233.052C91.3263 233.004 91.4383 232.936 91.5103 232.848C91.5903 232.752 91.6303 232.64 91.6303 232.512C91.6303 232.376 91.5823 232.26 91.4863 232.164C91.3903 232.068 91.2503 231.996 91.0663 231.948C90.8823 231.892 90.6503 231.864 90.3703 231.864C90.0503 231.864 89.7183 231.904 89.3743 231.984C89.0303 232.056 88.6783 232.164 88.3183 232.308L87.8623 231.012C88.2863 230.836 88.7063 230.696 89.1223 230.592C89.5383 230.488 89.9503 230.432 90.3583 230.424C90.9583 230.408 91.4983 230.472 91.9783 230.616C92.4583 230.76 92.8343 230.968 93.1063 231.24C93.3863 231.512 93.5263 231.844 93.5263 232.236C93.5263 232.548 93.4303 232.828 93.2383 233.076C93.0543 233.324 92.7983 233.52 92.4703 233.664C92.1423 233.8 91.7743 233.868 91.3663 233.868L91.4143 233.496C92.1263 233.496 92.6863 233.64 93.0943 233.928C93.5023 234.208 93.7063 234.592 93.7063 235.08C93.7063 235.496 93.5623 235.86 93.2743 236.172C92.9943 236.476 92.6103 236.712 92.1223 236.88C91.6423 237.04 91.0983 237.12 90.4902 237.12ZM98.9085 237V235.74L98.7885 235.464V233.208C98.7885 232.808 98.6645 232.496 98.4165 232.272C98.1765 232.048 97.8045 231.936 97.3005 231.936C96.9565 231.936 96.6165 231.992 96.2805 232.104C95.9525 232.208 95.6725 232.352 95.4405 232.536L94.7685 231.228C95.1205 230.98 95.5445 230.788 96.0405 230.652C96.5365 230.516 97.0405 230.448 97.5525 230.448C98.5365 230.448 99.3005 230.68 99.8445 231.144C100.389 231.608 100.661 232.332 100.661 233.316V237H98.9085ZM96.9405 237.096C96.4365 237.096 96.0045 237.012 95.6445 236.844C95.2845 236.668 95.0085 236.432 94.8165 236.136C94.6245 235.84 94.5285 235.508 94.5285 235.14C94.5285 234.756 94.6205 234.42 94.8045 234.132C94.9965 233.844 95.2965 233.62 95.7045 233.46C96.1125 233.292 96.6445 233.208 97.3005 233.208H99.0165V234.3H97.5045C97.0645 234.3 96.7605 234.372 96.5925 234.516C96.4325 234.66 96.3525 234.84 96.3525 235.056C96.3525 235.296 96.4445 235.488 96.6285 235.632C96.8205 235.768 97.0805 235.836 97.4085 235.836C97.7205 235.836 98.0005 235.764 98.2485 235.62C98.4965 235.468 98.6765 235.248 98.7885 234.96L99.0765 235.824C98.9405 236.24 98.6925 236.556 98.3325 236.772C97.9725 236.988 97.5085 237.096 96.9405 237.096ZM102.287 237V230.544H104.147V235.464H106.751V230.544H108.623V237H102.287ZM107.819 238.392V236.976L108.251 237H106.751V235.464H109.559V238.392H107.819ZM110.736 237V230.544H112.596V234.384L115.74 230.544H117.456V237H115.596V233.16L112.464 237H110.736ZM123.323 237V234.852L123.587 235.152H121.799C120.871 235.152 120.143 234.96 119.615 234.576C119.087 234.192 118.823 233.64 118.823 232.92C118.823 232.152 119.099 231.564 119.651 231.156C120.211 230.748 120.963 230.544 121.907 230.544H124.991V237H123.323ZM118.727 237L120.443 234.54H122.351L120.719 237H118.727ZM123.323 234.276V231.588L123.587 232.068H121.943C121.559 232.068 121.259 232.14 121.043 232.284C120.835 232.428 120.731 232.66 120.731 232.98C120.731 233.596 121.127 233.904 121.919 233.904H123.587L123.323 234.276ZM47.0171 257L44.4011 252.956L45.9731 252.008L49.2251 257H47.0171ZM41.5571 257V248.6H43.4891V257H41.5571ZM42.9251 253.616V251.996H45.8531V253.616H42.9251ZM46.1531 253.016L44.3651 252.8L47.0891 248.6H49.1411L46.1531 253.016ZM52.922 257.096C52.234 257.096 51.622 256.952 51.086 256.664C50.558 256.376 50.138 255.984 49.826 255.488C49.522 254.984 49.37 254.412 49.37 253.772C49.37 253.124 49.522 252.552 49.826 252.056C50.138 251.552 50.558 251.16 51.086 250.88C51.622 250.592 52.234 250.448 52.922 250.448C53.602 250.448 54.21 250.592 54.746 250.88C55.282 251.16 55.702 251.548 56.006 252.044C56.31 252.54 56.462 253.116 56.462 253.772C56.462 254.412 56.31 254.984 56.006 255.488C55.702 255.984 55.282 256.376 54.746 256.664C54.21 256.952 53.602 257.096 52.922 257.096ZM52.922 255.56C53.234 255.56 53.514 255.488 53.762 255.344C54.01 255.2 54.206 254.996 54.35 254.732C54.494 254.46 54.566 254.14 54.566 253.772C54.566 253.396 54.494 253.076 54.35 252.812C54.206 252.548 54.01 252.344 53.762 252.2C53.514 252.056 53.234 251.984 52.922 251.984C52.61 251.984 52.33 252.056 52.082 252.2C51.834 252.344 51.634 252.548 51.482 252.812C51.338 253.076 51.266 253.396 51.266 253.772C51.266 254.14 51.338 254.46 51.482 254.732C51.634 254.996 51.834 255.2 52.082 255.344C52.33 255.488 52.61 255.56 52.922 255.56ZM57.7496 257V250.544H59.7056L62.1416 254.96H61.3616L63.9656 250.544H65.7176L65.7416 257H64.0496V252.464L64.3376 252.656L62.1176 256.376H61.3256L59.0936 252.524L59.4416 252.44V257H57.7496ZM67.5348 257V250.544H73.9548V257H72.0828V251.66L72.5028 252.08H68.9748L69.3948 251.66V257H67.5348ZM79.6136 257V255.74L79.4936 255.464V253.208C79.4936 252.808 79.3696 252.496 79.1216 252.272C78.8816 252.048 78.5096 251.936 78.0056 251.936C77.6616 251.936 77.3216 251.992 76.9856 252.104C76.6576 252.208 76.3776 252.352 76.1456 252.536L75.4736 251.228C75.8256 250.98 76.2496 250.788 76.7456 250.652C77.2416 250.516 77.7456 250.448 78.2576 250.448C79.2416 250.448 80.0056 250.68 80.5496 251.144C81.0936 251.608 81.3656 252.332 81.3656 253.316V257H79.6136ZM77.6456 257.096C77.1416 257.096 76.7096 257.012 76.3496 256.844C75.9896 256.668 75.7136 256.432 75.5216 256.136C75.3296 255.84 75.2336 255.508 75.2336 255.14C75.2336 254.756 75.3256 254.42 75.5096 254.132C75.7016 253.844 76.0016 253.62 76.4096 253.46C76.8176 253.292 77.3496 253.208 78.0056 253.208H79.7216V254.3H78.2096C77.7696 254.3 77.4656 254.372 77.2976 254.516C77.1376 254.66 77.0576 254.84 77.0576 255.056C77.0576 255.296 77.1496 255.488 77.3336 255.632C77.5256 255.768 77.7856 255.836 78.1136 255.836C78.4256 255.836 78.7056 255.764 78.9536 255.62C79.2016 255.468 79.3816 255.248 79.4936 254.96L79.7816 255.824C79.6456 256.24 79.3976 256.556 79.0376 256.772C78.6776 256.988 78.2136 257.096 77.6456 257.096ZM82.9918 257V250.544H84.8518V253.064H87.6598V250.544H89.5318V257H87.6598V254.588H84.8518V257H82.9918ZM91.3238 257V250.544H93.1838V254.384L96.3278 250.544H98.0438V257H96.1838V253.16L93.0518 257H91.3238ZM99.8434 257V250.544H101.703V254.384L104.847 250.544H106.563V257H104.703V253.16L101.571 257H99.8434Z" fill="white"/>
<g opacity="0.5">
<rect x="15.1128" y="776.799" width="118" height="118" rx="59" fill="#010101"/>
<rect x="15.1128" y="776.799" width="118" height="118" rx="59" stroke="#82F7FF" stroke-width="2"/>
<path d="M40.1268 819.6H42.0708V828H40.1268V819.6ZM36.3108 828H34.3668V819.6H36.3108V828ZM40.2708 824.556H36.1668V822.912H40.2708V824.556ZM47.8954 828V826.74L47.7754 826.464V824.208C47.7754 823.808 47.6514 823.496 47.4034 823.272C47.1634 823.048 46.7914 822.936 46.2874 822.936C45.9434 822.936 45.6034 822.992 45.2674 823.104C44.9394 823.208 44.6594 823.352 44.4274 823.536L43.7554 822.228C44.1074 821.98 44.5314 821.788 45.0274 821.652C45.5234 821.516 46.0274 821.448 46.5394 821.448C47.5234 821.448 48.2874 821.68 48.8314 822.144C49.3754 822.608 49.6474 823.332 49.6474 824.316V828H47.8954ZM45.9274 828.096C45.4234 828.096 44.9914 828.012 44.6314 827.844C44.2714 827.668 43.9954 827.432 43.8034 827.136C43.6114 826.84 43.5154 826.508 43.5154 826.14C43.5154 825.756 43.6074 825.42 43.7914 825.132C43.9834 824.844 44.2834 824.62 44.6914 824.46C45.0994 824.292 45.6314 824.208 46.2874 824.208H48.0034V825.3H46.4914C46.0514 825.3 45.7474 825.372 45.5794 825.516C45.4194 825.66 45.3394 825.84 45.3394 826.056C45.3394 826.296 45.4314 826.488 45.6154 826.632C45.8074 826.768 46.0674 826.836 46.3954 826.836C46.7074 826.836 46.9874 826.764 47.2354 826.62C47.4834 826.468 47.6634 826.248 47.7754 825.96L48.0634 826.824C47.9274 827.24 47.6794 827.556 47.3194 827.772C46.9594 827.988 46.4954 828.096 45.9274 828.096ZM51.2736 828V821.544H57.6936V828H55.8216V822.66L56.2416 823.08H52.7136L53.1336 822.66V828H51.2736ZM63.2924 828.096C62.7484 828.096 62.2724 827.976 61.8644 827.736C61.4564 827.496 61.1364 827.132 60.9044 826.644C60.6804 826.148 60.5684 825.524 60.5684 824.772C60.5684 824.012 60.6764 823.388 60.8924 822.9C61.1084 822.412 61.4204 822.048 61.8284 821.808C62.2364 821.568 62.7244 821.448 63.2924 821.448C63.9004 821.448 64.4444 821.588 64.9244 821.868C65.4124 822.14 65.7964 822.524 66.0764 823.02C66.3644 823.516 66.5084 824.1 66.5084 824.772C66.5084 825.452 66.3644 826.04 66.0764 826.536C65.7964 827.032 65.4124 827.416 64.9244 827.688C64.4444 827.96 63.9004 828.096 63.2924 828.096ZM59.4764 830.328V821.544H61.2644V822.864L61.2284 824.784L61.3484 826.692V830.328H59.4764ZM62.9684 826.56C63.2804 826.56 63.5564 826.488 63.7964 826.344C64.0444 826.2 64.2404 825.996 64.3844 825.732C64.5364 825.46 64.6124 825.14 64.6124 824.772C64.6124 824.396 64.5364 824.076 64.3844 823.812C64.2404 823.548 64.0444 823.344 63.7964 823.2C63.5564 823.056 63.2804 822.984 62.9684 822.984C62.6564 822.984 62.3764 823.056 62.1284 823.2C61.8804 823.344 61.6844 823.548 61.5404 823.812C61.3964 824.076 61.3244 824.396 61.3244 824.772C61.3244 825.14 61.3964 825.46 61.5404 825.732C61.6844 825.996 61.8804 826.2 62.1284 826.344C62.3764 826.488 62.6564 826.56 62.9684 826.56ZM71.579 828V826.74L71.459 826.464V824.208C71.459 823.808 71.335 823.496 71.087 823.272C70.847 823.048 70.475 822.936 69.971 822.936C69.627 822.936 69.287 822.992 68.951 823.104C68.623 823.208 68.343 823.352 68.111 823.536L67.439 822.228C67.791 821.98 68.215 821.788 68.711 821.652C69.207 821.516 69.711 821.448 70.223 821.448C71.207 821.448 71.971 821.68 72.515 822.144C73.059 822.608 73.331 823.332 73.331 824.316V828H71.579ZM69.611 828.096C69.107 828.096 68.675 828.012 68.315 827.844C67.955 827.668 67.679 827.432 67.487 827.136C67.295 826.84 67.199 826.508 67.199 826.14C67.199 825.756 67.291 825.42 67.475 825.132C67.667 824.844 67.967 824.62 68.375 824.46C68.783 824.292 69.315 824.208 69.971 824.208H71.687V825.3H70.175C69.735 825.3 69.431 825.372 69.263 825.516C69.103 825.66 69.023 825.84 69.023 826.056C69.023 826.296 69.115 826.488 69.299 826.632C69.491 826.768 69.751 826.836 70.079 826.836C70.391 826.836 70.671 826.764 70.919 826.62C71.167 826.468 71.347 826.248 71.459 825.96L71.747 826.824C71.611 827.24 71.363 827.556 71.003 827.772C70.643 827.988 70.179 828.096 69.611 828.096ZM74.1411 827.988L74.2371 826.452C74.2851 826.46 74.3331 826.468 74.3811 826.476C74.4291 826.476 74.4731 826.476 74.5131 826.476C74.7371 826.476 74.9131 826.412 75.0411 826.284C75.1691 826.156 75.2651 825.984 75.3291 825.768C75.3931 825.544 75.4371 825.292 75.4611 825.012C75.4931 824.732 75.5171 824.44 75.5331 824.136L75.6291 821.544H81.1491V828H79.2771V822.624L79.6971 823.08H76.8651L77.2611 822.6L77.1771 824.22C77.1531 824.796 77.1051 825.324 77.0331 825.804C76.9691 826.284 76.8611 826.7 76.7091 827.052C76.5571 827.396 76.3531 827.664 76.0971 827.856C75.8411 828.04 75.5131 828.132 75.1131 828.132C74.9691 828.132 74.8171 828.12 74.6571 828.096C74.4971 828.072 74.3251 828.036 74.1411 827.988ZM86.1053 828.096C85.3693 828.096 84.7213 827.952 84.1613 827.664C83.6093 827.376 83.1813 826.984 82.8773 826.488C82.5733 825.984 82.4213 825.412 82.4213 824.772C82.4213 824.124 82.5693 823.552 82.8653 823.056C83.1693 822.552 83.5813 822.16 84.1013 821.88C84.6213 821.592 85.2093 821.448 85.8653 821.448C86.4973 821.448 87.0653 821.584 87.5693 821.856C88.0813 822.12 88.4853 822.504 88.7813 823.008C89.0773 823.504 89.2253 824.1 89.2253 824.796C89.2253 824.868 89.2213 824.952 89.2133 825.048C89.2053 825.136 89.1973 825.22 89.1893 825.3H83.9453V824.208H88.2053L87.4853 824.532C87.4853 824.196 87.4173 823.904 87.2813 823.656C87.1453 823.408 86.9573 823.216 86.7173 823.08C86.4773 822.936 86.1973 822.864 85.8773 822.864C85.5573 822.864 85.2733 822.936 85.0253 823.08C84.7853 823.216 84.5973 823.412 84.4613 823.668C84.3253 823.916 84.2573 824.212 84.2573 824.556V824.844C84.2573 825.196 84.3333 825.508 84.4853 825.78C84.6453 826.044 84.8653 826.248 85.1453 826.392C85.4333 826.528 85.7693 826.596 86.1533 826.596C86.4973 826.596 86.7973 826.544 87.0533 826.44C87.3173 826.336 87.5573 826.18 87.7733 825.972L88.7693 827.052C88.4733 827.388 88.1013 827.648 87.6533 827.832C87.2053 828.008 86.6893 828.096 86.1053 828.096ZM90.6603 828V821.544H92.5203V824.064H95.3283V821.544H97.2003V828H95.3283V825.588H92.5203V828H90.6603ZM98.9923 828V821.544H100.852V825.384L103.996 821.544H105.712V828H103.852V824.16L100.72 828H98.9923ZM110.668 828.096C109.932 828.096 109.284 827.952 108.724 827.664C108.172 827.376 107.744 826.984 107.44 826.488C107.136 825.984 106.984 825.412 106.984 824.772C106.984 824.124 107.132 823.552 107.428 823.056C107.732 822.552 108.144 822.16 108.664 821.88C109.184 821.592 109.772 821.448 110.428 821.448C111.06 821.448 111.628 821.584 112.132 821.856C112.644 822.12 113.048 822.504 113.344 823.008C113.64 823.504 113.788 824.1 113.788 824.796C113.788 824.868 113.784 824.952 113.776 825.048C113.768 825.136 113.76 825.22 113.752 825.3H108.508V824.208H112.768L112.048 824.532C112.048 824.196 111.98 823.904 111.844 823.656C111.708 823.408 111.52 823.216 111.28 823.08C111.04 822.936 110.76 822.864 110.44 822.864C110.12 822.864 109.836 822.936 109.588 823.08C109.348 823.216 109.16 823.412 109.024 823.668C108.888 823.916 108.82 824.212 108.82 824.556V824.844C108.82 825.196 108.896 825.508 109.048 825.78C109.208 826.044 109.428 826.248 109.708 826.392C109.996 826.528 110.332 826.596 110.716 826.596C111.06 826.596 111.36 826.544 111.616 826.44C111.88 826.336 112.12 826.18 112.336 825.972L113.332 827.052C113.036 827.388 112.664 827.648 112.216 827.832C111.768 828.008 111.252 828.096 110.668 828.096ZM46.8399 852L44.2239 847.956L45.7959 847.008L49.0479 852H46.8399ZM41.3799 852V843.6H43.3119V852H41.3799ZM42.7479 848.616V846.996H45.6759V848.616H42.7479ZM45.9759 848.016L44.1879 847.8L46.9119 843.6H48.9639L45.9759 848.016ZM52.7448 852.096C52.0568 852.096 51.4448 851.952 50.9088 851.664C50.3808 851.376 49.9608 850.984 49.6488 850.488C49.3448 849.984 49.1928 849.412 49.1928 848.772C49.1928 848.124 49.3448 847.552 49.6488 847.056C49.9608 846.552 50.3808 846.16 50.9088 845.88C51.4448 845.592 52.0568 845.448 52.7448 845.448C53.4248 845.448 54.0328 845.592 54.5688 845.88C55.1048 846.16 55.5248 846.548 55.8288 847.044C56.1328 847.54 56.2848 848.116 56.2848 848.772C56.2848 849.412 56.1328 849.984 55.8288 850.488C55.5248 850.984 55.1048 851.376 54.5688 851.664C54.0328 851.952 53.4248 852.096 52.7448 852.096ZM52.7448 850.56C53.0568 850.56 53.3368 850.488 53.5848 850.344C53.8328 850.2 54.0288 849.996 54.1728 849.732C54.3168 849.46 54.3888 849.14 54.3888 848.772C54.3888 848.396 54.3168 848.076 54.1728 847.812C54.0288 847.548 53.8328 847.344 53.5848 847.2C53.3368 847.056 53.0568 846.984 52.7448 846.984C52.4328 846.984 52.1528 847.056 51.9048 847.2C51.6568 847.344 51.4568 847.548 51.3048 847.812C51.1608 848.076 51.0888 848.396 51.0888 848.772C51.0888 849.14 51.1608 849.46 51.3048 849.732C51.4568 849.996 51.6568 850.2 51.9048 850.344C52.1528 850.488 52.4328 850.56 52.7448 850.56ZM57.5724 852V845.544H59.5284L61.9644 849.96H61.1844L63.7884 845.544H65.5404L65.5644 852H63.8724V847.464L64.1604 847.656L61.9404 851.376H61.1484L58.9164 847.524L59.2644 847.44V852H57.5724ZM67.3575 852V845.544H73.7775V852H71.9055V846.66L72.3255 847.08H68.7975L69.2175 846.66V852H67.3575ZM79.4364 852V850.74L79.3164 850.464V848.208C79.3164 847.808 79.1924 847.496 78.9444 847.272C78.7044 847.048 78.3324 846.936 77.8284 846.936C77.4844 846.936 77.1444 846.992 76.8084 847.104C76.4804 847.208 76.2004 847.352 75.9684 847.536L75.2964 846.228C75.6484 845.98 76.0724 845.788 76.5684 845.652C77.0644 845.516 77.5684 845.448 78.0804 845.448C79.0644 845.448 79.8284 845.68 80.3724 846.144C80.9164 846.608 81.1884 847.332 81.1884 848.316V852H79.4364ZM77.4684 852.096C76.9644 852.096 76.5324 852.012 76.1724 851.844C75.8124 851.668 75.5364 851.432 75.3444 851.136C75.1524 850.84 75.0564 850.508 75.0564 850.14C75.0564 849.756 75.1484 849.42 75.3324 849.132C75.5244 848.844 75.8244 848.62 76.2324 848.46C76.6404 848.292 77.1724 848.208 77.8284 848.208H79.5444V849.3H78.0324C77.5924 849.3 77.2884 849.372 77.1204 849.516C76.9604 849.66 76.8804 849.84 76.8804 850.056C76.8804 850.296 76.9724 850.488 77.1564 850.632C77.3484 850.768 77.6084 850.836 77.9364 850.836C78.2484 850.836 78.5284 850.764 78.7764 850.62C79.0244 850.468 79.2044 850.248 79.3164 849.96L79.6044 850.824C79.4684 851.24 79.2204 851.556 78.8604 851.772C78.5004 851.988 78.0364 852.096 77.4684 852.096ZM82.8146 852V845.544H84.6746V848.064H87.4826V845.544H89.3546V852H87.4826V849.588H84.6746V852H82.8146ZM91.1466 852V845.544H93.0066V849.384L96.1506 845.544H97.8666V852H96.0066V848.16L92.8746 852H91.1466ZM99.6661 852V845.544H101.526V849.384L104.67 845.544H106.386V852H104.526V848.16L101.394 852H99.6661Z" fill="white"/>
</g>
<g opacity="0.6">
<rect x="15.1128" y="485.799" width="118" height="118" rx="59" fill="#010101"/>
<rect x="15.1128" y="485.799" width="118" height="118" rx="59" stroke="#82F7FF" stroke-width="2"/>
<path d="M57.9766 539V530.6H59.9086V537.416H63.6526V530.6H65.5846V539H57.9766ZM64.9966 540.776V538.544L65.4166 539H63.6526V537.416H66.7846V540.776H64.9966ZM71.0081 539.096C70.2721 539.096 69.6241 538.952 69.0641 538.664C68.5121 538.376 68.0841 537.984 67.7801 537.488C67.4761 536.984 67.3241 536.412 67.3241 535.772C67.3241 535.124 67.4721 534.552 67.7681 534.056C68.0721 533.552 68.4841 533.16 69.0041 532.88C69.5241 532.592 70.1121 532.448 70.7681 532.448C71.4001 532.448 71.9681 532.584 72.4721 532.856C72.9841 533.12 73.3881 533.504 73.6841 534.008C73.9801 534.504 74.1281 535.1 74.1281 535.796C74.1281 535.868 74.1241 535.952 74.1161 536.048C74.1081 536.136 74.1001 536.22 74.0921 536.3H68.8481V535.208H73.1081L72.3881 535.532C72.3881 535.196 72.3201 534.904 72.1841 534.656C72.0481 534.408 71.8601 534.216 71.6201 534.08C71.3801 533.936 71.1001 533.864 70.7801 533.864C70.4601 533.864 70.1761 533.936 69.9281 534.08C69.6881 534.216 69.5001 534.412 69.3641 534.668C69.2281 534.916 69.1601 535.212 69.1601 535.556V535.844C69.1601 536.196 69.2361 536.508 69.3881 536.78C69.5481 537.044 69.7681 537.248 70.0481 537.392C70.3361 537.528 70.6721 537.596 71.0561 537.596C71.4001 537.596 71.7001 537.544 71.9561 537.44C72.2201 537.336 72.4601 537.18 72.6761 536.972L73.6721 538.052C73.3761 538.388 73.0041 538.648 72.5561 538.832C72.1081 539.008 71.5921 539.096 71.0081 539.096ZM74.6885 538.988L74.7845 537.452C74.8325 537.46 74.8805 537.468 74.9285 537.476C74.9765 537.476 75.0205 537.476 75.0605 537.476C75.2845 537.476 75.4605 537.412 75.5885 537.284C75.7165 537.156 75.8125 536.984 75.8765 536.768C75.9405 536.544 75.9845 536.292 76.0085 536.012C76.0405 535.732 76.0645 535.44 76.0805 535.136L76.1765 532.544H81.6965V539H79.8245V533.624L80.2445 534.08H77.4125L77.8085 533.6L77.7245 535.22C77.7005 535.796 77.6525 536.324 77.5805 536.804C77.5165 537.284 77.4085 537.7 77.2565 538.052C77.1045 538.396 76.9005 538.664 76.6445 538.856C76.3885 539.04 76.0605 539.132 75.6605 539.132C75.5165 539.132 75.3645 539.12 75.2045 539.096C75.0445 539.072 74.8725 539.036 74.6885 538.988ZM83.4967 539V532.544H85.3567V536.384L88.5007 532.544H90.2167V539H88.3567V535.16L85.2247 539H83.4967ZM46.514 559L44.354 555.94L45.878 555.04L48.722 559H46.514ZM41.942 559V552.544H43.814V559H41.942ZM43.262 556.552V555.052H45.518V556.552H43.262ZM46.058 555.988L44.306 555.796L46.574 552.544H48.566L46.058 555.988ZM52.466 559.096C51.778 559.096 51.166 558.952 50.63 558.664C50.102 558.376 49.682 557.984 49.37 557.488C49.066 556.984 48.914 556.412 48.914 555.772C48.914 555.124 49.066 554.552 49.37 554.056C49.682 553.552 50.102 553.16 50.63 552.88C51.166 552.592 51.778 552.448 52.466 552.448C53.146 552.448 53.754 552.592 54.29 552.88C54.826 553.16 55.246 553.548 55.55 554.044C55.854 554.54 56.006 555.116 56.006 555.772C56.006 556.412 55.854 556.984 55.55 557.488C55.246 557.984 54.826 558.376 54.29 558.664C53.754 558.952 53.146 559.096 52.466 559.096ZM52.466 557.56C52.778 557.56 53.058 557.488 53.306 557.344C53.554 557.2 53.75 556.996 53.894 556.732C54.038 556.46 54.11 556.14 54.11 555.772C54.11 555.396 54.038 555.076 53.894 554.812C53.75 554.548 53.554 554.344 53.306 554.2C53.058 554.056 52.778 553.984 52.466 553.984C52.154 553.984 51.874 554.056 51.626 554.2C51.378 554.344 51.178 554.548 51.026 554.812C50.882 555.076 50.81 555.396 50.81 555.772C50.81 556.14 50.882 556.46 51.026 556.732C51.178 556.996 51.378 557.2 51.626 557.344C51.874 557.488 52.154 557.56 52.466 557.56ZM57.2936 559V552.544H59.2496L61.6856 556.96H60.9056L63.5096 552.544H65.2616L65.2856 559H63.5936V554.464L63.8816 554.656L61.6616 558.376H60.8696L58.6376 554.524L58.9856 554.44V559H57.2936ZM67.0787 559V552.544H73.4987V559H71.6267V553.66L72.0467 554.08H68.5187L68.9387 553.66V559H67.0787ZM79.1576 559V557.74L79.0376 557.464V555.208C79.0376 554.808 78.9136 554.496 78.6656 554.272C78.4256 554.048 78.0536 553.936 77.5496 553.936C77.2056 553.936 76.8656 553.992 76.5296 554.104C76.2016 554.208 75.9216 554.352 75.6896 554.536L75.0176 553.228C75.3696 552.98 75.7936 552.788 76.2896 552.652C76.7856 552.516 77.2896 552.448 77.8016 552.448C78.7856 552.448 79.5496 552.68 80.0936 553.144C80.6376 553.608 80.9096 554.332 80.9096 555.316V559H79.1576ZM77.1896 559.096C76.6856 559.096 76.2536 559.012 75.8936 558.844C75.5336 558.668 75.2576 558.432 75.0656 558.136C74.8736 557.84 74.7776 557.508 74.7776 557.14C74.7776 556.756 74.8696 556.42 75.0536 556.132C75.2456 555.844 75.5456 555.62 75.9536 555.46C76.3616 555.292 76.8936 555.208 77.5496 555.208H79.2656V556.3H77.7536C77.3136 556.3 77.0096 556.372 76.8416 556.516C76.6816 556.66 76.6016 556.84 76.6016 557.056C76.6016 557.296 76.6936 557.488 76.8776 557.632C77.0696 557.768 77.3296 557.836 77.6576 557.836C77.9696 557.836 78.2496 557.764 78.4976 557.62C78.7456 557.468 78.9256 557.248 79.0376 556.96L79.3256 557.824C79.1896 558.24 78.9416 558.556 78.5816 558.772C78.2216 558.988 77.7576 559.096 77.1896 559.096ZM82.5357 559V552.544H84.3957V555.064H87.2037V552.544H89.0757V559H87.2037V556.588H84.3957V559H82.5357ZM90.8678 559V552.544H92.7278V556.384L95.8718 552.544H97.5878V559H95.7278V555.16L92.5958 559H90.8678ZM99.3873 559V552.544H101.247V556.384L104.391 552.544H106.107V559H104.247V555.16L101.115 559H99.3873Z" fill="white"/>
</g>
<rect x="72.3579" y="894.01" width="3.50977" height="171.633" fill="#82F7FF"/>
</svg>
