<?xml version="1.0"?>
<svg xmlns="http://www.w3.org/2000/svg" xmlns:xlink="http://www.w3.org/1999/xlink" version="1.1" id="Capa_1" x="0px" y="0px" viewBox="0 0 512 512" style="enable-background:new 0 0 512 512;" xml:space="preserve" width="512px" height="512px"><g><g>
	<g>
		<path d="M505,242.789c-2.901-3.866-7.811-10.179-14.72-18.29c-11.406-13.39-29.998-33.67-53.792-54.243    c-37.852-32.727-94.955-71.149-160.009-78.075l48.17-48.17h55.918c5.523,0,10-4.477,10-10c0-5.523-4.477-10-10-10h-60.06    c-2.652,0-5.196,1.054-7.071,2.929l-64.268,64.265c-70.776,2.537-133.206,43.847-173.617,78.675    c-23.957,20.648-42.488,40.882-53.814,54.22c-7.038,8.288-11.907,14.618-14.754,18.469c-5.851,7.917-6.957,10.05-6.957,13.431    c0,3.548,1.236,5.531,7,13.211c2.902,3.868,7.812,10.182,14.721,18.292c11.406,13.391,29.998,33.671,53.792,54.243    c37.847,32.723,94.94,71.14,159.984,78.072l-48.17,48.171H66.494c-4.281-13.882-17.228-23.999-32.495-23.999    C15.251,443.992,0,459.243,0,477.99s15.251,33.998,33.998,33.998c15.268,0,28.216-10.117,32.495-23.999h125.001    c2.652,0,5.196-1.054,7.071-2.929l64.263-64.263c70.789-2.527,133.23-43.842,173.646-78.675    c23.958-20.648,42.488-40.883,53.814-54.22c7.038-8.288,11.908-14.618,14.754-18.47C510.895,261.516,512,259.382,512,256    C512,252.452,510.764,250.469,505,242.789z M33.998,491.991c-7.72,0-13.999-6.28-13.999-13.999c0-7.72,6.28-13.999,13.999-13.999    c7.72,0,13.999,6.28,13.999,13.999C47.998,485.711,41.718,491.991,33.998,491.991z M419.568,330.256    c-38.282,32.237-97.733,70.667-163.555,70.667c-65.84,0-125.449-38.762-163.86-71.278c-36.075-30.541-61.405-61.937-70.134-73.757    c8.447-11.627,33.62-43.132,70.44-74.138c38.283-32.238,97.734-70.668,163.555-70.668c65.84,0,125.449,38.761,163.86,71.279    c36.076,30.54,61.407,61.936,70.135,73.757C481.561,267.743,456.39,299.248,419.568,330.256z" data-original="#000000" class="active-path" data-old_color="#000000" fill="#748DFA"/>
	</g>
</g><g>
	<g>
		<path d="M350.46,161.555c-52.059-52.057-136.763-52.057-188.822,0.001c-20.718,20.718-33.798,46.97-37.826,75.915    c-3.896,27.994,1.306,57.044,14.645,81.8c2.619,4.861,8.684,6.68,13.546,4.061c4.862-2.62,6.68-8.686,4.06-13.546    c-23.58-43.762-15.471-98.9,19.717-134.088c44.26-44.261,116.277-44.261,160.538-0.001c44.261,44.261,44.261,116.278,0,160.539    c-35.19,35.189-90.331,43.298-134.09,19.715c-4.86-2.617-10.926-0.802-13.546,4.06s-0.802,10.927,4.06,13.547    c19.395,10.45,41.426,15.906,63.52,15.906c6.107,0,12.22-0.417,18.282-1.26c28.947-4.028,55.198-17.108,75.916-37.826    C402.518,298.318,402.518,213.613,350.46,161.555z" data-original="#000000" class="active-path" data-old_color="#000000" fill="#748DFA"/>
	</g>
</g><g>
	<g>
		<path d="M175.784,336.224c-3.904-3.904-10.236-3.904-14.141,0l-0.08,0.08c-3.905,3.905-3.905,10.237,0,14.142    c1.953,1.952,4.512,2.929,7.071,2.929c2.559,0,5.119-0.977,7.071-2.929l0.08-0.08C179.689,346.462,179.689,340.13,175.784,336.224    z" data-original="#000000" class="active-path" data-old_color="#000000" fill="#748DFA"/>
	</g>
</g><g>
	<g>
		<path d="M312.01,246.002c-5.523,0-10,4.477-10,10c0,25.363-20.635,45.998-45.998,45.998c-25.363,0-45.998-20.635-45.998-45.998    c0-25.363,20.635-45.998,45.998-45.998c5.523,0,10-4.477,10-10c0-5.523-4.477-10-10-10c-36.391,0-65.997,29.606-65.997,65.997    c0,36.391,29.606,65.997,65.997,65.997c36.391,0,65.997-29.606,65.997-65.997C322.009,250.479,317.532,246.002,312.01,246.002z" data-original="#000000" class="active-path" data-old_color="#000000" fill="#748DFA"/>
	</g>
</g><g>
	<g>
		<path d="M424.074,26.943c-1.86-1.87-4.44-2.93-7.07-2.93c-2.63,0-5.21,1.06-7.07,2.93c-1.86,1.86-2.93,4.44-2.93,7.07    s1.07,5.21,2.93,7.07c1.86,1.86,4.44,2.93,7.07,2.93c2.63,0,5.21-1.07,7.07-2.93c1.86-1.86,2.93-4.44,2.93-7.07    S425.934,28.803,424.074,26.943z" data-original="#000000" class="active-path" data-old_color="#000000" fill="#748DFA"/>
	</g>
</g><g>
	<g>
		<path d="M478.002,0.011c-18.747,0-33.998,15.251-33.998,33.998s15.252,33.998,33.998,33.998C496.749,68.008,512,52.757,512,34.01    S496.749,0.011,478.002,0.011z M478.002,48.009c-7.72,0-13.999-6.28-13.999-13.999s6.281-13.999,13.999-13.999    c7.72,0,13.999,6.28,13.999,13.999S485.721,48.009,478.002,48.009z" data-original="#000000" class="active-path" data-old_color="#000000" fill="#748DFA"/>
	</g>
</g><g>
	<g>
		<path d="M83.021,73.505H10.025c-5.523,0-10,4.477-10,10c0,5.523,4.477,10,10,10h72.996c5.523,0,10-4.477,10-10    C93.02,77.982,88.544,73.505,83.021,73.505z" data-original="#000000" class="active-path" data-old_color="#000000" fill="#748DFA"/>
	</g>
</g><g>
	<g>
		<path d="M83.021,25.507H10.025c-5.523,0-10,4.477-10,10c0,5.523,4.477,10,10,10h72.996c5.523,0,10-4.477,10-10    C93.02,29.984,88.544,25.507,83.021,25.507z" data-original="#000000" class="active-path" data-old_color="#000000" fill="#748DFA"/>
	</g>
</g><g>
	<g>
		<path d="M183.422,25.507h-59.403c-5.523,0-10,4.477-10,10c0,5.523,4.477,10,10,10h59.403c5.523,0,10-4.477,10-10    C193.422,29.984,188.945,25.507,183.422,25.507z" data-original="#000000" class="active-path" data-old_color="#000000" fill="#748DFA"/>
	</g>
</g><g>
	<g>
		<path d="M502,418.5h-71.663c-5.523,0-10,4.478-10,10s4.477,10,10,10H502c5.523,0,10-4.478,10-10S507.523,418.5,502,418.5z" data-original="#000000" class="active-path" data-old_color="#000000" fill="#748DFA"/>
	</g>
</g><g>
	<g>
		<path d="M297.01,466.498H268.09c-5.523,0-10,4.478-10,10s4.477,10,10,10h28.921c5.523,0,10-4.478,10-10    S302.533,466.498,297.01,466.498z" data-original="#000000" class="active-path" data-old_color="#000000" fill="#748DFA"/>
	</g>
</g><g>
	<g>
		<path d="M389.006,466.498h-49.998c-5.523,0-10,4.478-10,10s4.477,10,10,10h49.998c5.523,0,10-4.478,10-10    S394.529,466.498,389.006,466.498z" data-original="#000000" class="active-path" data-old_color="#000000" fill="#748DFA"/>
	</g>
</g><g>
	<g>
		<path d="M502,466.498h-71.663c-5.523,0-10,4.478-10,10s4.477,10,10,10H502c5.523,0,10-4.478,10-10S507.523,466.498,502,466.498z" data-original="#000000" class="active-path" data-old_color="#000000" fill="#748DFA"/>
	</g>
</g><g>
	<g>
		<path d="M115.074,401.992H10c-5.523,0-10,4.478-10,10s4.477,10,10,10h105.075c5.523,0,10-4.478,10-10    S120.597,401.992,115.074,401.992z" data-original="#000000" class="active-path" data-old_color="#000000" fill="#748DFA"/>
	</g>
</g><g>
	<g>
		<path d="M64.022,361.994H10c-5.523,0-10,4.478-10,10s4.477,10,10,10h54.022c5.523,0,10-4.478,10-10S69.545,361.994,64.022,361.994    z" data-original="#000000" class="active-path" data-old_color="#000000" fill="#748DFA"/>
	</g>
</g></g> </svg>
