<?xml version="1.0" encoding="utf-8"?>
<!-- Generator: Adobe Illustrator 17.0.1, SVG Export Plug-In . SVG Version: 6.00 Build 0)  -->
<!DOCTYPE svg PUBLIC "-//W3C//DTD SVG 1.1//EN" "http://www.w3.org/Graphics/SVG/1.1/DTD/svg11.dtd">
<svg version="1.1" id="Layer_1" xmlns="http://www.w3.org/2000/svg" xmlns:xlink="http://www.w3.org/1999/xlink" x="0px" y="0px"
	 width="512px" height="512px" viewBox="0 0 512 512" enable-background="new 0 0 512 512" xml:space="preserve">
<g>
	<path fill="#748DFA" d="M454.194,0v16.516h41.29v41.29H512V0H454.194z"/>
	<path fill="#748DFA" d="M495.484,495.484h-41.29V512H512v-57.806h-16.516V495.484z"/>
	<path fill="#748DFA" d="M16.516,454.194H0V512h57.806v-16.516h-41.29V454.194z"/>
	<path fill="#748DFA" d="M16.516,16.516h41.29V0H0v57.806h16.516V16.516z"/>
	<path fill="#748DFA" d="M264.258,313.806h16.516v107.355h-16.516V313.806z"/>
	<path fill="#748DFA" d="M231.226,388.129h16.516v16.516h-16.516V388.129z"/>
	<path fill="#748DFA" d="M198.194,388.129h16.516v16.516h-16.516V388.129z"/>
	<path fill="#748DFA" d="M132.129,313.806h16.516v107.355h-16.516V313.806z"/>
	<path fill="#748DFA" d="M99.097,388.129h16.516v16.516H99.097V388.129z"/>
	<path fill="#748DFA" d="M33.032,313.806h16.516v107.355H33.032V313.806z"/>
	<path fill="#748DFA" d="M66.065,388.129h16.516v16.516H66.065V388.129z"/>
	<path fill="#748DFA" d="M363.355,313.806h16.516v107.355h-16.516V313.806z"/>
	<path fill="#748DFA" d="M429.419,313.806h16.516v107.355h-16.516V313.806z"/>
	<path fill="#748DFA" d="M495.484,247.742v16.516H355.208c-1.547,0.19-3.117,0.301-4.708,0.305
		c-12.336,0.029-24.378,0.084-36.452-0.832c-21.618,1.098-43.281,1.351-64.948,0.714c-0.979,0.294-1.963,0.538-2.95,0.687
		c-10.677,1.611-20.253,3.201-30.926,0.121c-0.741-0.214-1.48-0.445-2.216-0.69c-17.751,1.198-35.477-0.103-53.508-1
		c-0.589-0.029-1.173-0.075-1.757-0.126c0.76,0.276,1.518,0.553,2.281,0.821H16.516v-16.516H0v49.548h16.516v-16.516h16.516v16.516
		h16.516v-16.516h16.516v90.839h16.516v-90.839h16.516v90.839h16.516v-90.839h16.516v16.516h16.516v-16.516h16.516v156.903h16.516
		V280.774h16.516v90.839h16.516v-90.839h16.516v90.839h16.516v-90.839h16.516v16.516h16.516v-16.516h16.516v156.903h16.516V280.774
		h16.516v156.903h16.516V280.774h16.516v16.516h16.516v-16.516h16.516v156.903h16.516V280.774h16.516v16.516h16.516v-16.516h16.516
		v156.903h16.516V280.774h16.516v16.516H512v-49.548H495.484z"/>
</g>
</svg>
