<svg width="266" height="21" viewBox="0 0 266 21" fill="none" xmlns="http://www.w3.org/2000/svg">
<g clip-path="url(#clip0_1158_5)">
<path d="M10.4975 19.9498C1.08282 19.9498 0 13.9935 0 10.1446V0.312869H5.31167V10.0148C5.31167 12.2255 5.9321 15.3985 10.8048 15.3985H10.9336C15.8092 15.3985 16.3769 12.2255 16.3769 10.0148V0.312869H21.6623V10.1446C21.6623 14.0201 20.3219 19.9498 11.2438 19.9498H10.4975Z" fill="#EBEBEB"/>
<path d="M31.4632 7.1281V19.6547H26.2803V0.312869H31.7471L42.9645 12.7715V0.312869H48.124V19.6547H42.9148L31.4632 7.1281Z" fill="#EBEBEB"/>
<path d="M59.1825 19.6547H53.868V0.312869H59.1825V19.6547Z" fill="#EBEBEB"/>
<path d="M69.7863 19.6547L60.8954 0.312869H67.0851L73.3245 14.9823L79.5931 0.312869H85.3701L76.7749 19.6547H69.7863Z" fill="#EBEBEB"/>
<path d="M105.633 0.312869V4.52479H93.3069V7.67414H105.247V12.0425H93.3069V15.3985H105.789V19.6547H88.0713V0.312869H105.633Z" fill="#EBEBEB"/>
<path d="M131.217 15.3719V17.3731C131.217 18.8312 131.346 19.2208 131.527 19.5336V19.6547H126.034C125.955 19.5248 125.853 19.1617 125.853 18.3028V16.7149C125.853 14.2178 124.952 13.0756 122.268 13.0756H115.358V19.6547H110.044V0.312869H122.964C130.263 0.312869 131.089 3.38253 131.089 5.48701V5.7497C131.089 8.16706 129.438 9.80519 127.038 10.3512C129.643 10.9504 131.217 12.5354 131.217 15.3719ZM115.358 8.68654H122.76C124.925 8.68654 125.516 7.75088 125.516 6.62042V6.57025C125.516 5.45159 124.931 4.56611 122.76 4.56611H115.358V8.68654Z" fill="#EBEBEB"/>
<path d="M144.594 20C135.592 20 134.562 15.8914 134.562 13.5773V13.2822H140.339C140.415 14.1411 140.778 16.0655 144.852 16.0655H145.033C149.028 16.0655 149.546 14.8701 149.546 13.7515C149.546 12.5708 148.797 11.8772 145.625 11.7473L143.073 11.6706C136.781 11.461 134.767 8.93743 134.767 6.0242V5.79103C134.767 2.7745 136.368 0.0708389 144.311 0.0708389H145.189C153.676 0.0708389 154.846 3.19067 154.846 5.74085V6.03601H149.142C149.014 5.18005 148.557 3.90496 144.834 3.90496H144.577C141.173 3.90496 140.374 4.55431 140.374 5.61983C140.374 6.60862 141.071 7.33766 144.088 7.46753L146.743 7.57084C153.576 7.866 155.23 10.0944 155.23 13.2408V13.5537C155.23 16.3902 153.942 20.0029 145.352 20.0029L144.594 20Z" fill="#EBEBEB"/>
<path d="M171.012 9.53674e-07C179.985 9.53674e-07 182.537 5.31287 182.537 9.54545V10.3247C182.537 14.4864 179.985 19.9764 171.012 19.9764H169.877C160.901 19.9764 158.349 14.4864 158.349 10.3247V9.54545C158.349 5.33353 160.901 9.53674e-07 169.877 9.53674e-07H171.012ZM177.021 9.75502C177.021 7.36127 175.85 4.42149 170.445 4.42149C165.08 4.42149 163.869 7.37308 163.869 9.75502V10.1181C163.869 12.4587 165.156 15.5283 170.445 15.5283C175.832 15.5283 177.021 12.4587 177.021 10.1181V9.75502Z" fill="#EBEBEB"/>
<path d="M203.918 0.312869V4.60153H191.712V8.06375H203.55V12.4911H191.712V19.6547H186.444V0.312869H203.918Z" fill="#EBEBEB"/>
<path d="M214.287 4.73436H206.86V0.306965H227V4.73436H219.572V19.6547H214.287V4.73436Z" fill="#EBEBEB"/>
</g>
<path d="M242.315 20.3418H237V1H242.315V20.3418Z" fill="#EBEBEB"/>
<path d="M252.428 5.42739H245V1H265.14V5.42739H257.713V20.3477H252.428V5.42739Z" fill="#EBEBEB"/>
<defs>
<clipPath id="clip0_1158_5">
<rect width="227" height="20" fill="white"/>
</clipPath>
</defs>
</svg>
