<svg width="217" height="150" viewBox="0 0 217 150" fill="none" xmlns="http://www.w3.org/2000/svg">
<g filter="url(#filter0_b_78_175)">
<rect width="217" height="107" rx="15" fill="white" fill-opacity="0.08"/>
<rect x="0.5" y="0.5" width="216" height="106" rx="14.5" stroke="white" stroke-opacity="0.08"/>
<path d="M50.873 38.355H42.908V31.56C49.658 31.56 51.728 30.57 53.168 26.52H60.098V60H50.873V38.355ZM86.0806 60.54H84.1906C68.7556 60.54 66.9556 54.15 66.9556 50.505V49.92C66.9556 45.825 70.5106 43.17 74.4706 42.45C71.2306 41.865 67.7656 39.705 67.7656 35.745V35.205C67.7656 31.785 69.2956 26.205 84.1906 26.205H86.0806C101.066 26.205 102.551 31.785 102.551 35.205V35.745C102.551 39.435 99.1756 41.865 95.8006 42.45C99.8956 43.17 103.361 45.825 103.361 49.92V50.505C103.361 54.15 101.426 60.54 86.0806 60.54ZM92.7406 36.195V36.015C92.7406 34.755 91.7956 33 85.1356 33C78.4756 33 77.5306 34.755 77.5306 36.015V36.195C77.5306 37.545 78.5656 39.21 85.1356 39.21C91.7956 39.21 92.7406 37.545 92.7406 36.195ZM93.5956 49.785V49.65C93.5956 48.03 92.5156 46.05 85.1356 46.05C77.7556 46.05 76.7206 48.03 76.7206 49.65V49.785C76.7206 51.405 77.8006 53.43 85.1356 53.43C92.5156 53.43 93.5956 51.405 93.5956 49.785ZM126.574 60.495H124.684C110.509 60.495 108.259 52.485 108.259 49.02V48.615H118.159C118.294 49.515 118.744 53.025 125.854 53.025C133.009 53.025 133.954 50.73 133.954 49.02C133.954 47.265 132.874 46.095 129.454 46.095H118.744V39.3H129.409C132.694 39.3 133.504 37.995 133.504 36.6C133.504 35.025 132.739 33.315 125.764 33.315C118.789 33.315 118.474 35.97 118.339 36.78H108.709V36.285C108.709 33.54 110.329 26.115 124.054 26.115H126.574C140.164 26.115 142.729 30.93 142.729 34.71V35.025C142.729 38.625 140.254 40.38 137.734 41.235C140.614 41.955 143.764 44.34 143.764 48.885V49.2C143.764 54.24 140.749 60.495 126.574 60.495ZM173.304 48.57H164.889V57.165H158.139V48.57H149.679V42.63H158.139V34.08H164.889V42.63H173.304V48.57Z" fill="#EBEBEB"/>
<g filter="url(#filter1_b_78_175)">
<path d="M109 106.322L126.678 106.322L109 124L91.3223 106.322L109 106.322Z" fill="white" fill-opacity="0.08"/>
<path d="M109 106.822L125.471 106.822L109 123.293L92.5294 106.822L109 106.822Z" stroke="white" stroke-opacity="0.08"/>
</g>
<path d="M65.016 84.5911V71.9911H72.81V72.8191H65.664L65.934 72.5311V84.5911H65.016ZM75.998 84.6631C75.05 84.6631 74.21 84.4591 73.478 84.0511C72.758 83.6431 72.188 83.0791 71.768 82.3591C71.36 81.6391 71.156 80.8171 71.156 79.8931C71.156 78.9571 71.348 78.1351 71.732 77.4271C72.128 76.7071 72.668 76.1431 73.352 75.7351C74.036 75.3271 74.804 75.1231 75.656 75.1231C76.508 75.1231 77.27 75.3211 77.942 75.7171C78.626 76.1131 79.16 76.6711 79.544 77.3911C79.94 78.0991 80.138 78.9211 80.138 79.8571C80.138 79.8931 80.132 79.9351 80.12 79.9831C80.12 80.0191 80.12 80.0611 80.12 80.1091H71.822V79.4071H79.634L79.274 79.7491C79.286 79.0171 79.13 78.3631 78.806 77.7871C78.494 77.1991 78.068 76.7431 77.528 76.4191C76.988 76.0831 76.364 75.9151 75.656 75.9151C74.96 75.9151 74.336 76.0831 73.784 76.4191C73.244 76.7431 72.818 77.1991 72.506 77.7871C72.194 78.3631 72.038 79.0231 72.038 79.7671V79.9291C72.038 80.6971 72.206 81.3811 72.542 81.9811C72.89 82.5691 73.364 83.0311 73.964 83.3671C74.564 83.6911 75.248 83.8531 76.016 83.8531C76.616 83.8531 77.174 83.7451 77.69 83.5291C78.218 83.3131 78.662 82.9831 79.022 82.5391L79.544 83.1331C79.136 83.6371 78.62 84.0211 77.996 84.2851C77.384 84.5371 76.718 84.6631 75.998 84.6631ZM87.8128 84.6631C86.9848 84.6631 86.2348 84.4711 85.5628 84.0871C84.9028 83.7031 84.3748 83.1571 83.9788 82.4491C83.5948 81.7291 83.4028 80.8771 83.4028 79.8931C83.4028 78.9091 83.5948 78.0631 83.9788 77.3551C84.3748 76.6351 84.9028 76.0831 85.5628 75.6991C86.2348 75.3151 86.9848 75.1231 87.8128 75.1231C88.7008 75.1231 89.4928 75.3271 90.1888 75.7351C90.8968 76.1311 91.4488 76.6891 91.8448 77.4091C92.2528 78.1291 92.4568 78.9571 92.4568 79.8931C92.4568 80.8291 92.2528 81.6571 91.8448 82.3771C91.4488 83.0971 90.8968 83.6611 90.1888 84.0691C89.4928 84.4651 88.7008 84.6631 87.8128 84.6631ZM83.0968 88.0831V75.1951H83.9608V78.2731L83.8168 79.9111L83.9968 81.5491V88.0831H83.0968ZM87.7588 83.8531C88.4788 83.8531 89.1268 83.6911 89.7028 83.3671C90.2788 83.0311 90.7288 82.5631 91.0528 81.9631C91.3888 81.3631 91.5568 80.6731 91.5568 79.8931C91.5568 79.1011 91.3888 78.4111 91.0528 77.8231C90.7288 77.2231 90.2788 76.7611 89.7028 76.4371C89.1268 76.1011 88.4788 75.9331 87.7588 75.9331C87.0388 75.9331 86.3908 76.1011 85.8148 76.4371C85.2508 76.7611 84.8008 77.2231 84.4648 77.8231C84.1408 78.4111 83.9788 79.1011 83.9788 79.8931C83.9788 80.6731 84.1408 81.3631 84.4648 81.9631C84.8008 82.5631 85.2508 83.0311 85.8148 83.3671C86.3908 83.6911 87.0388 83.8531 87.7588 83.8531ZM95.3835 84.5911V75.1951H96.2655L100.711 82.6291H100.315L104.779 75.1951H105.607V84.5911H104.779V76.2751L104.959 76.3471L100.693 83.3851H100.279L95.9955 76.2931L96.2115 76.2571V84.5911H95.3835ZM115.367 84.5911V82.4491L115.331 82.1251V78.5971C115.331 77.7211 115.091 77.0551 114.611 76.5991C114.143 76.1431 113.453 75.9151 112.541 75.9151C111.893 75.9151 111.287 76.0291 110.723 76.2571C110.171 76.4731 109.697 76.7551 109.301 77.1031L108.851 76.4551C109.319 76.0351 109.883 75.7111 110.543 75.4831C111.203 75.2431 111.893 75.1231 112.613 75.1231C113.777 75.1231 114.671 75.4171 115.295 76.0051C115.919 76.5931 116.231 77.4691 116.231 78.6331V84.5911H115.367ZM111.983 84.6631C111.287 84.6631 110.681 84.5551 110.165 84.3391C109.661 84.1111 109.271 83.7931 108.995 83.3851C108.731 82.9771 108.599 82.5091 108.599 81.9811C108.599 81.5011 108.707 81.0691 108.923 80.6851C109.151 80.2891 109.523 79.9711 110.039 79.7311C110.555 79.4791 111.245 79.3531 112.109 79.3531H115.565V80.0551H112.127C111.155 80.0551 110.471 80.2351 110.075 80.5951C109.691 80.9551 109.499 81.4051 109.499 81.9451C109.499 82.5451 109.727 83.0251 110.183 83.3851C110.639 83.7451 111.281 83.9251 112.109 83.9251C112.901 83.9251 113.567 83.7451 114.107 83.3851C114.659 83.0251 115.067 82.5031 115.331 81.8191L115.583 82.4311C115.331 83.1151 114.899 83.6611 114.287 84.0691C113.687 84.4651 112.919 84.6631 111.983 84.6631ZM119.887 84.5911V75.1951H120.787V79.4791H127.159V75.1951H128.059V84.5911H127.159V80.2711H120.787V84.5911H119.887ZM131.946 84.5911V75.1951H132.846V83.2051L139.542 75.1951H140.334V84.5911H139.434V76.5811L132.738 84.5911H131.946ZM150.317 84.5911V81.1351L150.515 81.3511H147.185C146.009 81.3511 145.091 81.0991 144.431 80.5951C143.783 80.0791 143.459 79.3231 143.459 78.3271C143.459 77.2711 143.813 76.4851 144.521 75.9691C145.229 75.4531 146.165 75.1951 147.329 75.1951H151.145V84.5911H150.317ZM143.405 84.5911L146.015 80.9731H146.969L144.395 84.5911H143.405ZM150.317 80.8831V75.7171L150.515 75.9871H147.383C146.423 75.9871 145.679 76.1731 145.151 76.5451C144.623 76.9171 144.359 77.5231 144.359 78.3631C144.359 79.8991 145.331 80.6671 147.275 80.6671H150.515L150.317 80.8831Z" fill="white"/>
</g>
<g filter="url(#filter2_f_78_175)">
<circle cx="109" cy="131.591" r="7.59106" fill="#1190D8"/>
</g>
<defs>
<filter id="filter0_b_78_175" x="-20" y="-20" width="257" height="164" filterUnits="userSpaceOnUse" color-interpolation-filters="sRGB">
<feFlood flood-opacity="0" result="BackgroundImageFix"/>
<feGaussianBlur in="BackgroundImageFix" stdDeviation="10"/>
<feComposite in2="SourceAlpha" operator="in" result="effect1_backgroundBlur_78_175"/>
<feBlend mode="normal" in="SourceGraphic" in2="effect1_backgroundBlur_78_175" result="shape"/>
</filter>
<filter id="filter1_b_78_175" x="71.3223" y="86.3224" width="75.3555" height="57.6776" filterUnits="userSpaceOnUse" color-interpolation-filters="sRGB">
<feFlood flood-opacity="0" result="BackgroundImageFix"/>
<feGaussianBlur in="BackgroundImageFix" stdDeviation="10"/>
<feComposite in2="SourceAlpha" operator="in" result="effect1_backgroundBlur_78_175"/>
<feBlend mode="normal" in="SourceGraphic" in2="effect1_backgroundBlur_78_175" result="shape"/>
</filter>
<filter id="filter2_f_78_175" x="91.4092" y="114" width="35.1826" height="35.1821" filterUnits="userSpaceOnUse" color-interpolation-filters="sRGB">
<feFlood flood-opacity="0" result="BackgroundImageFix"/>
<feBlend mode="normal" in="SourceGraphic" in2="BackgroundImageFix" result="shape"/>
<feGaussianBlur stdDeviation="5" result="effect1_foregroundBlur_78_175"/>
</filter>
</defs>
</svg>
