<svg width="217" height="150" viewBox="0 0 217 150" fill="none" xmlns="http://www.w3.org/2000/svg">
<g filter="url(#filter0_b_78_169)">
<rect width="217" height="107" rx="15" fill="white" fill-opacity="0.08"/>
<rect x="0.5" y="0.5" width="216" height="106" rx="14.5" stroke="white" stroke-opacity="0.08"/>
<path d="M32.335 26.52H66.4V33.54C64.825 35.745 62.125 39.525 59.11 44.205C54.7 51 54.475 54.87 54.475 58.92V60H44.35V57.075C44.35 52.08 44.485 49.155 50.605 42.405C54.565 37.95 58.21 34.395 58.21 33.81H41.47V39.615H32.335V26.52ZM89.7258 25.98H91.6158C107.321 25.98 110.336 36.555 110.336 42.495V43.845C110.336 49.695 107.231 60.54 91.6158 60.54H89.7258C74.0658 60.54 71.0058 49.695 71.0058 43.845V42.495C71.0058 36.42 74.0658 25.98 89.7258 25.98ZM100.706 43.44V42.81C100.706 39.795 99.4458 33.63 90.6708 33.63C81.8058 33.63 80.6358 39.795 80.6358 42.81V43.44C80.6358 46.5 82.0758 52.845 90.7158 52.845C99.3558 52.845 100.706 46.5 100.706 43.44ZM134.638 25.98H136.528C152.233 25.98 155.248 36.555 155.248 42.495V43.845C155.248 49.695 152.143 60.54 136.528 60.54H134.638C118.978 60.54 115.918 49.695 115.918 43.845V42.495C115.918 36.42 118.978 25.98 134.638 25.98ZM145.618 43.44V42.81C145.618 39.795 144.358 33.63 135.583 33.63C126.718 33.63 125.548 39.795 125.548 42.81V43.44C125.548 46.5 126.988 52.845 135.628 52.845C144.268 52.845 145.618 46.5 145.618 43.44ZM184.995 48.57H176.58V57.165H169.83V48.57H161.37V42.63H169.83V34.08H176.58V42.63H184.995V48.57Z" fill="#EBEBEB"/>
<g filter="url(#filter1_b_78_169)">
<path d="M108.5 106.322L126.178 106.322L108.5 124L90.8223 106.322L108.5 106.322Z" fill="white" fill-opacity="0.08"/>
<path d="M108.5 106.822L124.971 106.822L108.5 123.293L92.0294 106.822L108.5 106.822Z" stroke="white" stroke-opacity="0.08"/>
</g>
<path d="M57.39 83.6551C57.978 83.8831 58.548 83.9371 59.1 83.8171C59.652 83.6851 60.174 83.2351 60.666 82.4671L61.278 81.5131L61.386 81.3691L66.354 71.9911H67.308L61.494 82.6831C61.134 83.3671 60.708 83.8711 60.216 84.1951C59.736 84.5191 59.226 84.6871 58.686 84.6991C58.158 84.7231 57.63 84.6271 57.102 84.4111L57.39 83.6551ZM61.332 82.2511L55.932 71.9911H56.94L61.854 81.4411L61.332 82.2511ZM70.9633 84.6811C70.3153 84.6811 69.6613 84.5791 69.0013 84.3751C68.3413 84.1711 67.7593 83.8591 67.2553 83.4391L67.5973 82.7731C68.0533 83.1571 68.5813 83.4451 69.1813 83.6371C69.7813 83.8171 70.3813 83.9011 70.9813 83.8891C71.5933 83.8891 72.1273 83.7991 72.5833 83.6191C73.0513 83.4391 73.4113 83.1931 73.6633 82.8811C73.9153 82.5691 74.0413 82.2211 74.0413 81.8371C74.0413 81.2731 73.7893 80.8351 73.2853 80.5231C72.7813 80.2111 72.0913 80.0551 71.2153 80.0551H69.7033V79.3711H71.1793C71.6833 79.3711 72.1273 79.3051 72.5113 79.1731C72.9073 79.0411 73.2133 78.8491 73.4293 78.5971C73.6573 78.3331 73.7713 78.0271 73.7713 77.6791C73.7713 77.2951 73.6393 76.9711 73.3753 76.7071C73.1233 76.4311 72.7753 76.2271 72.3313 76.0951C71.8993 75.9631 71.4133 75.8971 70.8733 75.8971C70.4053 75.9091 69.9193 75.9811 69.4153 76.1131C68.9233 76.2451 68.4373 76.4431 67.9573 76.7071L67.6693 75.9871C68.1973 75.6991 68.7313 75.4831 69.2713 75.3391C69.8113 75.1951 70.3573 75.1171 70.9093 75.1051C71.6053 75.0931 72.2413 75.1891 72.8173 75.3931C73.3933 75.5851 73.8493 75.8671 74.1853 76.2391C74.5213 76.5991 74.6893 77.0371 74.6893 77.5531C74.6893 78.0211 74.5453 78.4291 74.2573 78.7771C73.9813 79.1131 73.5973 79.3771 73.1053 79.5691C72.6253 79.7611 72.0853 79.8571 71.4853 79.8571L71.5573 79.5691C72.6373 79.5691 73.4713 79.7791 74.0593 80.1991C74.6593 80.6191 74.9593 81.1831 74.9593 81.8911C74.9593 82.4551 74.7793 82.9471 74.4193 83.3671C74.0593 83.7871 73.5733 84.1111 72.9613 84.3391C72.3613 84.5671 71.6953 84.6811 70.9633 84.6811ZM82.2199 84.6811C81.4639 84.6811 80.7919 84.5491 80.2039 84.2851C79.6279 84.0211 79.1359 83.6311 78.7279 83.1151C78.3319 82.5991 78.0259 81.9631 77.8099 81.2071C77.5939 80.4391 77.4859 79.5571 77.4859 78.5611C77.4859 77.5891 77.5819 76.7551 77.7739 76.0591C77.9659 75.3511 78.2179 74.7571 78.5299 74.2771C78.8539 73.7851 79.2199 73.3831 79.6279 73.0711C80.0359 72.7591 80.4559 72.5131 80.8879 72.3331C81.3319 72.1411 81.7699 71.9971 82.2019 71.9011L86.3599 70.9111L86.5039 71.7571L82.5439 72.6751C82.2679 72.7471 81.9439 72.8431 81.5719 72.9631C81.2119 73.0711 80.8399 73.2451 80.4559 73.4851C80.0839 73.7131 79.7359 74.0371 79.4119 74.4571C79.0999 74.8651 78.8419 75.3931 78.6379 76.0411C78.4459 76.6891 78.3499 77.4931 78.3499 78.4531C78.3499 78.6331 78.3559 78.7771 78.3679 78.8851C78.3799 78.9931 78.3919 79.1131 78.4039 79.2451C78.4279 79.3651 78.4519 79.5451 78.4759 79.7851L78.0619 79.5691C78.1339 78.7771 78.3679 78.0811 78.7639 77.4811C79.1599 76.8811 79.6759 76.4131 80.3119 76.0771C80.9479 75.7411 81.6679 75.5731 82.4719 75.5731C83.3479 75.5731 84.1219 75.7651 84.7939 76.1491C85.4779 76.5211 86.0119 77.0491 86.3959 77.7331C86.7799 78.4051 86.9719 79.1851 86.9719 80.0731C86.9719 80.9611 86.7739 81.7531 86.3779 82.4491C85.9939 83.1451 85.4419 83.6911 84.7219 84.0871C84.0139 84.4831 83.1799 84.6811 82.2199 84.6811ZM82.3639 83.9071C83.0839 83.9071 83.7199 83.7451 84.2719 83.4211C84.8359 83.0851 85.2739 82.6291 85.5859 82.0531C85.8979 81.4771 86.0539 80.8231 86.0539 80.0911C86.0539 79.3591 85.8979 78.7171 85.5859 78.1651C85.2739 77.6131 84.8359 77.1811 84.2719 76.8691C83.7199 76.5451 83.0779 76.3831 82.3459 76.3831C81.6259 76.3831 80.9839 76.5391 80.4199 76.8511C79.8679 77.1631 79.4359 77.5951 79.1239 78.1471C78.8119 78.6991 78.6559 79.3411 78.6559 80.0731C78.6559 80.8051 78.8119 81.4591 79.1239 82.0351C79.4479 82.6111 79.8859 83.0671 80.4379 83.4031C81.0019 83.7391 81.6439 83.9071 82.3639 83.9071ZM93.8164 84.6631C92.8684 84.6631 92.0284 84.4591 91.2964 84.0511C90.5764 83.6431 90.0064 83.0791 89.5864 82.3591C89.1784 81.6391 88.9744 80.8171 88.9744 79.8931C88.9744 78.9571 89.1664 78.1351 89.5504 77.4271C89.9464 76.7071 90.4864 76.1431 91.1704 75.7351C91.8544 75.3271 92.6224 75.1231 93.4744 75.1231C94.3264 75.1231 95.0884 75.3211 95.7604 75.7171C96.4444 76.1131 96.9784 76.6711 97.3624 77.3911C97.7584 78.0991 97.9564 78.9211 97.9564 79.8571C97.9564 79.8931 97.9504 79.9351 97.9384 79.9831C97.9384 80.0191 97.9384 80.0611 97.9384 80.1091H89.6404V79.4071H97.4524L97.0924 79.7491C97.1044 79.0171 96.9484 78.3631 96.6244 77.7871C96.3124 77.1991 95.8864 76.7431 95.3464 76.4191C94.8064 76.0831 94.1824 75.9151 93.4744 75.9151C92.7784 75.9151 92.1544 76.0831 91.6024 76.4191C91.0624 76.7431 90.6364 77.1991 90.3244 77.7871C90.0124 78.3631 89.8564 79.0231 89.8564 79.7671V79.9291C89.8564 80.6971 90.0244 81.3811 90.3604 81.9811C90.7084 82.5691 91.1824 83.0311 91.7824 83.3671C92.3824 83.6911 93.0664 83.8531 93.8344 83.8531C94.4344 83.8531 94.9924 83.7451 95.5084 83.5291C96.0364 83.3131 96.4804 82.9831 96.8404 82.5391L97.3624 83.1331C96.9544 83.6371 96.4384 84.0211 95.8144 84.2851C95.2024 84.5371 94.5364 84.6631 93.8164 84.6631ZM107.827 84.5911L103.795 79.8931L104.551 79.4611L108.907 84.5911H107.827ZM100.897 84.5911V75.1951H101.797V84.5911H100.897ZM101.509 80.2351V79.4611H104.461V80.2351H101.509ZM104.605 79.9831L103.777 79.8391L107.629 75.1951H108.619L104.605 79.9831ZM111.128 84.5911V75.1951H112.028V83.2051L118.724 75.1951H119.516V84.5911H118.616V76.5811L111.92 84.5911H111.128ZM127.195 84.6631C126.283 84.6631 125.467 84.4591 124.747 84.0511C124.039 83.6431 123.475 83.0791 123.055 82.3591C122.647 81.6391 122.443 80.8171 122.443 79.8931C122.443 78.9571 122.647 78.1291 123.055 77.4091C123.475 76.6891 124.039 76.1311 124.747 75.7351C125.467 75.3271 126.283 75.1231 127.195 75.1231C127.951 75.1231 128.635 75.2671 129.247 75.5551C129.871 75.8431 130.375 76.2751 130.759 76.8511L130.093 77.3371C129.757 76.8571 129.337 76.5031 128.833 76.2751C128.329 76.0471 127.783 75.9331 127.195 75.9331C126.463 75.9331 125.803 76.1011 125.215 76.4371C124.639 76.7611 124.183 77.2231 123.847 77.8231C123.523 78.4111 123.361 79.1011 123.361 79.8931C123.361 80.6851 123.523 81.3811 123.847 81.9811C124.183 82.5691 124.639 83.0311 125.215 83.3671C125.803 83.6911 126.463 83.8531 127.195 83.8531C127.783 83.8531 128.329 83.7391 128.833 83.5111C129.337 83.2831 129.757 82.9291 130.093 82.4491L130.759 82.9351C130.375 83.5111 129.871 83.9431 129.247 84.2311C128.635 84.5191 127.951 84.6631 127.195 84.6631ZM134.916 84.5911V75.7351L135.168 76.0051H131.244V75.1951H139.488V76.0051H135.564L135.816 75.7351V84.5911H134.916ZM147.283 84.5911V82.4491L147.247 82.1251V78.5971C147.247 77.7211 147.007 77.0551 146.527 76.5991C146.059 76.1431 145.369 75.9151 144.457 75.9151C143.809 75.9151 143.203 76.0291 142.639 76.2571C142.087 76.4731 141.613 76.7551 141.217 77.1031L140.767 76.4551C141.235 76.0351 141.799 75.7111 142.459 75.4831C143.119 75.2431 143.809 75.1231 144.529 75.1231C145.693 75.1231 146.587 75.4171 147.211 76.0051C147.835 76.5931 148.147 77.4691 148.147 78.6331V84.5911H147.283ZM143.899 84.6631C143.203 84.6631 142.597 84.5551 142.081 84.3391C141.577 84.1111 141.187 83.7931 140.911 83.3851C140.647 82.9771 140.515 82.5091 140.515 81.9811C140.515 81.5011 140.623 81.0691 140.839 80.6851C141.067 80.2891 141.439 79.9711 141.955 79.7311C142.471 79.4791 143.161 79.3531 144.025 79.3531H147.481V80.0551H144.043C143.071 80.0551 142.387 80.2351 141.991 80.5951C141.607 80.9551 141.415 81.4051 141.415 81.9451C141.415 82.5451 141.643 83.0251 142.099 83.3851C142.555 83.7451 143.197 83.9251 144.025 83.9251C144.817 83.9251 145.483 83.7451 146.023 83.3851C146.575 83.0251 146.983 82.5031 147.247 81.8191L147.499 82.4311C147.247 83.1151 146.815 83.6611 146.203 84.0691C145.603 84.4651 144.835 84.6631 143.899 84.6631ZM151.803 84.5911V75.1951H152.703V79.4791H159.075V75.1951H159.975V84.5911H159.075V80.2711H152.703V84.5911H151.803Z" fill="white"/>
</g>
<g filter="url(#filter2_f_78_169)">
<circle cx="109" cy="131.591" r="7.59106" fill="#1190D8"/>
</g>
<defs>
<filter id="filter0_b_78_169" x="-20" y="-20" width="257" height="164" filterUnits="userSpaceOnUse" color-interpolation-filters="sRGB">
<feFlood flood-opacity="0" result="BackgroundImageFix"/>
<feGaussianBlur in="BackgroundImageFix" stdDeviation="10"/>
<feComposite in2="SourceAlpha" operator="in" result="effect1_backgroundBlur_78_169"/>
<feBlend mode="normal" in="SourceGraphic" in2="effect1_backgroundBlur_78_169" result="shape"/>
</filter>
<filter id="filter1_b_78_169" x="70.8223" y="86.3224" width="75.3555" height="57.6776" filterUnits="userSpaceOnUse" color-interpolation-filters="sRGB">
<feFlood flood-opacity="0" result="BackgroundImageFix"/>
<feGaussianBlur in="BackgroundImageFix" stdDeviation="10"/>
<feComposite in2="SourceAlpha" operator="in" result="effect1_backgroundBlur_78_169"/>
<feBlend mode="normal" in="SourceGraphic" in2="effect1_backgroundBlur_78_169" result="shape"/>
</filter>
<filter id="filter2_f_78_169" x="91.4092" y="114" width="35.1826" height="35.1821" filterUnits="userSpaceOnUse" color-interpolation-filters="sRGB">
<feFlood flood-opacity="0" result="BackgroundImageFix"/>
<feBlend mode="normal" in="SourceGraphic" in2="BackgroundImageFix" result="shape"/>
<feGaussianBlur stdDeviation="5" result="effect1_foregroundBlur_78_169"/>
</filter>
</defs>
</svg>
